<svg xmlns="http://www.w3.org/2000/svg" xmlns:xlink="http://www.w3.org/1999/xlink" viewBox="0 0 381 134"><defs><style>.cls-1{fill:#ff0;}.cls-2{fill:#fff;}</style><symbol id="Nouveau_symbole_3" data-name="Nouveau symbole 3" viewBox="0 0 381 134"><rect class="cls-1" x="0.5" y="0.5" width="380" height="133" rx="44.16" ry="44.16"/><path class="cls-1" d="M336.34,1A43.7,43.7,0,0,1,380,44.66V89.34A43.7,43.7,0,0,1,336.34,133H44.66A43.7,43.7,0,0,1,1,89.34V44.66A43.7,43.7,0,0,1,44.66,1H336.34m0-1H44.66A44.8,44.8,0,0,0,0,44.66V89.34A44.8,44.8,0,0,0,44.66,134H336.34A44.8,44.8,0,0,0,381,89.34V44.66A44.8,44.8,0,0,0,336.34,0Z"/><rect class="cls-2" x="18.75" y="24" width="85.75" height="86" rx="21.83" ry="21.83"/><path class="cls-2" d="M82.67,24.5A21.36,21.36,0,0,1,104,45.83V88.17A21.36,21.36,0,0,1,82.67,109.5H40.58A21.36,21.36,0,0,1,19.25,88.17V45.83A21.36,21.36,0,0,1,40.58,24.5H82.67m0-1H40.58A22.4,22.4,0,0,0,18.25,45.83V88.17A22.4,22.4,0,0,0,40.58,110.5H82.67A22.4,22.4,0,0,0,105,88.17V45.83A22.4,22.4,0,0,0,82.67,23.5Z"/></symbol></defs><title>Hud Player 2</title><g id="Calque_2" data-name="Calque 2"><g id="Calque_1-2" data-name="Calque 1"><use width="381" height="134" xlink:href="#Nouveau_symbole_3"/></g></g></svg>