<svg xmlns="http://www.w3.org/2000/svg" viewBox="0 0 752.92 407"><title>Thiefsta Title</title><g id="Calque_2" data-name="Calque 2"><g id="Calque_2-2" data-name="Calque 2"><path d="M105.5,19a4.48,4.48,0,0,1,.5,2,4.76,4.76,0,0,1-2,4,11,11,0,0,1-7,2H95.5a99.17,99.17,0,0,1-12-1.75,106.25,106.25,0,0,0-11-1.75h-2q-4,0-5.5,1.5c-.33.33-.5,1.67-.5,4a21.83,21.83,0,0,0,.5,4V298q0,4.5.5,18.25t1,28.75v10q0,9.5-.5,18-.5,12.5-3,14c-.33.33-1.83.5-4.5.5a71.26,71.26,0,0,1-8.25-.5,64.25,64.25,0,0,0-7.25-.5c-2,0-3,.17-3,.5q-1-.5-1-6,0-5,.25-12t.5-14.25q.26-7.25.25-12.25V71.5c0-2.33.17-5.92.5-10.75s.58-9.67.75-14.5.25-9.42.25-13.75q0-6-1.5-7.5a2,2,0,0,0-1.5-.5h-1a19.6,19.6,0,0,0-2.5,1L32,27H1a4.86,4.86,0,0,1-1-3.5,21.83,21.83,0,0,1,.5-4,43.82,43.82,0,0,0,.5-6v-2a31.37,31.37,0,0,0-.5-6V4A21.83,21.83,0,0,1,1,0H67c.33,1.33,1,2,2,2l.5-.5A1.33,1.33,0,0,0,71,0h29c.33,1,.67,1.5,1,1.5l.5-.5c.33,0,.5-.33.5-1h2a6.65,6.65,0,0,1,1.5,4,2,2,0,0,1-.5,1.5,9.86,9.86,0,0,0-1,4.5v1.5A18.81,18.81,0,0,0,105.5,19Zm-58,230.5.5-.5a1.45,1.45,0,0,0-.5-1l-.5-.5H46a1.25,1.25,0,0,0,0,2ZM49,268v-.5h-.5c-.67,0-1,.5-1,1.5-.67.33-1,.67-1,1a.5.5,0,0,0,1,0v-1C48.5,268.67,49,268.33,49,268ZM50,81.5a3.93,3.93,0,0,0,1.5-.5.44.44,0,0,0,.5-.5,1.45,1.45,0,0,0-.5-1H50c-.67.33-1,.67-1,1a1.45,1.45,0,0,0,.5,1ZM52,89c-.67.33-1,.67-1,1a1.45,1.45,0,0,0,.5,1H52a3.93,3.93,0,0,0,1.5-.5A.44.44,0,0,0,54,90a1.45,1.45,0,0,0-.5-1Zm0,110.5a3.93,3.93,0,0,0,1.5-.5.44.44,0,0,0,.5-.5,1.45,1.45,0,0,0-.5-1H52c-.67.33-1,.67-1,1a1.45,1.45,0,0,0,.5,1Zm.5,64,1-.5a.44.44,0,0,0,.5-.5,1.45,1.45,0,0,0-.5-1,.44.44,0,0,0-.5-.5,1.45,1.45,0,0,0-1,.5l-1,.5a1.77,1.77,0,0,0,1.5,1.5Zm-.5,83a3.93,3.93,0,0,0,1.5-.5.44.44,0,0,0,.5-.5,1.45,1.45,0,0,0-.5-1H52c-.67.33-1,.67-1,1a1.45,1.45,0,0,0,.5,1ZM54,234a8.31,8.31,0,0,0,2.5-.5L58,233a.44.44,0,0,0-.5-.5c0-.33-.33-.5-1-.5a3.93,3.93,0,0,0-1.5.5c-1.33.33-2,.67-2,1a.44.44,0,0,0,.5.5ZM56,42.5a3.93,3.93,0,0,0,1.5-.5.44.44,0,0,0,.5-.5,1.45,1.45,0,0,0-.5-1H56c-.67.33-1,.67-1,1a1.45,1.45,0,0,0,.5,1Zm0,217a3.93,3.93,0,0,0,1.5-.5.44.44,0,0,0,.5-.5,1.45,1.45,0,0,0-.5-1H56c-.67.33-1,.67-1,1a1.45,1.45,0,0,0,.5,1ZM57.5,354l.5-.5a1.77,1.77,0,0,0-1.5-1.5H56c-.67.33-1,.67-1,1a1.45,1.45,0,0,0,.5,1Zm-1-157.5v.5c.67,0,1-.5,1-1.5a1.59,1.59,0,0,0-1-1.5c-.67,0-1,.5-1,1.5A.88.88,0,0,0,56.5,196.5ZM62,211a1.45,1.45,0,0,0,1-.5.44.44,0,0,0,.5-.5,1.45,1.45,0,0,0-.5-1H61.5a1.25,1.25,0,0,0,0,2Zm0,40.5a1.45,1.45,0,0,0,1-.5.44.44,0,0,0,.5-.5,1.45,1.45,0,0,0-.5-1H61.5a1.25,1.25,0,0,0,0,2Z"/><path d="M161.68,376.82q-.81,6-1.87,11.86L158,399c-.53,3-1,4.56-1.37,4.83a2.88,2.88,0,0,1-2.06.14,11.71,11.71,0,0,1-3.76-1.69l-2.46-.44c-2-.35-3.23.1-3.8,1.35L143,403a2,2,0,0,0-1.13-2.23L138,400a15.83,15.83,0,0,1-4-.21,1.44,1.44,0,0,1-1.07.32,2,2,0,0,1-1.39-.76l7.92-44.3q1.84-10.33,3.22-15.17l.09-.49q.53-3-3.91-3.74l-2-.36a.44.44,0,0,0-.58.41l.49.09-.09.49c-.06.33-.58.4-1.57.23a44.41,44.41,0,0,0-7.45-2.35q-6.06-1.59-12.91-3.07t-12.26-2.45q-5.91-1-6.49-.65c.06-.33-.46,1.19-1.57,4.54A69.6,69.6,0,0,0,92,342q-.61,3.45-1.48,11.16T88.65,369.1q-1,8.2-1.62,14.69l-.44,2.47q-.7,3.93-1.86,4.74t-5.1.11a8.2,8.2,0,0,1-2.55.05,27.92,27.92,0,0,1-5.32-1.46c-2.9-.86-5.53-1.75-7.91-2.68s-3.69-1.6-4-2-.26-1.4,0-3l.44-2.46A55.11,55.11,0,0,0,62,373.22c1-3.55,1.7-6.63,2.17-9.26a34.59,34.59,0,0,0,.65-6.49l.44-2.46A74.18,74.18,0,0,1,69,342.48q.24,1.56.72,1.65l.58-.4c.12-.66-.31-1.07-1.3-1.25q3.33-24.3,8.5-54.61t11.15-63.78L112.16,92.67l25.11,4.49L129.61,140q-4.05,22.65-8.3,45t-8,43.52q-3.8,21.16-6.46,39-1.16,6.41-3.15,16.2a134.29,134.29,0,0,1-4.14,16l.09-.49.23,1.56-.27,1.48a.43.43,0,0,1-.58.4q.81,1.17,5.24,2a23.11,23.11,0,0,0,4.34,1.28,34.89,34.89,0,0,0,5.51.48,87.51,87.51,0,0,0,9.44,1.18q4.52.3,6,.56a41.88,41.88,0,0,1,6.8,1.73c1.91.68,4,1.38,6.23,2.12a1.6,1.6,0,0,0,1.65-.72,1.42,1.42,0,0,1,1.07-.31l.49.09a1.44,1.44,0,0,0,.32,1.07l.4.58.5.09c.38-.27.78-1.56,1.19-3.85l1.41-7.88c.53-2.95,1-5.92,1.34-8.9s.72-5.46,1.07-7.43l4.4-24.61q1.06-5.91,2.54-12.75t2.91-13.45q1.42-6.6,2.69-12.22c.84-3.74,1.43-6.6,1.79-8.57q5-28.05,8.69-54.31,1.58-14.46,4.21-29.22,2.21-12.3,4.8-24l19.2,3.43c.15,1,.39,1.6.72,1.66l.09-.5c.33.06.55-.24.67-.89l4.43.79L163.19,366.94C162.72,369.56,162.22,372.86,161.68,376.82ZM99.08,177.19l-.58.41-.08.49,1.47.26.58-.4a1.44,1.44,0,0,0-.31-1.08A1.5,1.5,0,0,0,99.08,177.19ZM80,284a1.45,1.45,0,0,0-.67.89l-.09.5,1.48.26.58-.4a1.46,1.46,0,0,0-.32-1.08Zm-7.38,46.93.58-.4a.44.44,0,0,0-.4-.58.5.5,0,0,0-1-.18,1.42,1.42,0,0,0-.66.9l-.09.49A3.81,3.81,0,0,0,72.61,330.93Zm32.91-16.46.18-1a3.92,3.92,0,0,0-1.39-.75c-.66-.12-1.07.31-1.25,1.3l-1-.18a.45.45,0,0,1-.41-.58l.88-4.92a.44.44,0,0,0-.4-.58l-1-.18-1,2.87c-.33-.06-.44-.42-.32-1.07-.09-1.38-.63-2.15-1.62-2.33a5.7,5.7,0,0,0-.93,2.38,14.15,14.15,0,0,0-.12,3.53A4.56,4.56,0,0,1,97.3,315a2.38,2.38,0,0,1-2.41,2.11,8.7,8.7,0,0,1-.86-3.71,1.44,1.44,0,0,1,.67-.9.44.44,0,0,0,.58-.4,5,5,0,0,0-.55-2.64,5.07,5.07,0,0,1-1.33,1.79c-.78.54-1.33.78-1.66.72l-.49-.08a1.5,1.5,0,0,1-.32-1.08,1.46,1.46,0,0,1,.67-.89l1.51-2.78.27-1.48-.49-.09a8.77,8.77,0,0,0-2.06.14,9.44,9.44,0,0,1,0,3.05,13.25,13.25,0,0,1-1.86,4.74c-1,1.52-1.75,2.23-2.41,2.11s-1.22-.73-1.7-1.83c.71-.21,1.1-.48,1.16-.81l.08-.49-.49-.09c-.33-.05-.58.41-.75,1.39-1-.17-2.15-1.23-3.5-3.16a3.82,3.82,0,0,0-1.39-.76c-.33-.06-.58.41-.76,1.39l-.26,1.48-1.48-.27q-.23-1.56-.72-1.65l-.09.49-.49-.09c-.11.66.32,1.08,1.3,1.25.21.72.48,1.1.81,1.16l.09-.49a.44.44,0,0,0,.58-.4c.66.11,1,.68,1,1.69a1.6,1.6,0,0,0,1.45,1.79,4.46,4.46,0,0,0-.84,1.88q-.27,1.47.72,1.65a3.41,3.41,0,0,1,.55,2.64l-.27,1.47a4.52,4.52,0,0,0-1.88-.84.44.44,0,0,0-.58.4.45.45,0,0,0-.58.41l.4.58a2,2,0,0,0,1.39.75c.66.12,1.08-.31,1.25-1.3l1.48.27a6.1,6.1,0,0,1,.68,4.69,2.84,2.84,0,0,0-1.79-1.33l-.49-.09-.27,1.47a4.56,4.56,0,0,0,.14,2.06,7.48,7.48,0,0,0,1.36,3.8c.15,1,.55,1.62,1.21,1.74a2,2,0,0,0,1.56-.23,28,28,0,0,0-1.06-4,18.42,18.42,0,0,1-.66-3.42c1.28-1.46,2.08-2.17,2.41-2.11a4.32,4.32,0,0,1,.34,2.35,5.79,5.79,0,0,0,1.15,3.51,2,2,0,0,0,1.39.75,9.38,9.38,0,0,0,3,0c.21.71.48,1.1.81,1.16l.09-.49a.44.44,0,0,0-.4-.58l-.5-.09c-1.25-.56-1.82-1.17-1.7-1.83l.58-.4A4.52,4.52,0,0,1,92,329.06c.64-.73,1.38-1.53,2.21-2.4a2,2,0,0,0,.76-1.38l.08-.5c-.21-.71-1.27-1.41-3.18-2.09-1.58-.62-2.28-1.42-2.11-2.41l.18-1a4.81,4.81,0,0,0,2.29,1.42l1,.18a13.54,13.54,0,0,0,2.19-.88,3.4,3.4,0,0,1,2.1-.39c.33.06.67,1,1,2.73l-2.47-.44-.58.4c0,.33.22.72.81,1.16a1.61,1.61,0,0,0,1.3,1.25c.33.06.55-.24.67-.89l.27-1.48c1.64.29,2.68.14,3.13-.46l.08-.49a2,2,0,0,0-.23-1.56,11.19,11.19,0,0,0-1.9-2.12,9.23,9.23,0,0,1-1.5-1.54l1.47.26c2,.35,3.13-.45,3.48-2.42Zm-34.09,25.9-.58.41-.09.49,1.48.26.58-.4a1.45,1.45,0,0,0-.31-1.07A1.44,1.44,0,0,0,71.43,340.37Zm1.84,18.11.58-.41c.12-.65-.31-1.07-1.3-1.24a3.36,3.36,0,0,0-.94-3.22,3.92,3.92,0,0,0,.75-1.39c.12-.66,0-1-.31-1.07l-1-.18a3.76,3.76,0,0,0-.75,1.39c-.12.66.31,1.07,1.3,1.25l-.53,2.95a4.45,4.45,0,0,0-1.88-.84.44.44,0,0,0-.58.4.44.44,0,0,0-.58.41l.4.58a2.07,2.07,0,0,0,1.39.75c.66.12,1.07-.31,1.25-1.3l1.47.27Q72.79,358.39,73.27,358.48Zm-2,2.69.18-1a4.58,4.58,0,0,0-1.88-.84,2,2,0,0,0-2.24,1.12Zm31.56-187.88-.58.4-.09.5,1.48.26.58-.4a1.46,1.46,0,0,0-.32-1.08A1.43,1.43,0,0,0,102.83,173.29Zm-23.27,133a.44.44,0,0,0-.58.4,1.44,1.44,0,0,0-.67.9l-.08.49.49.09a1.43,1.43,0,0,0,1.07-.32.44.44,0,0,0,.58-.4.44.44,0,0,0-.4-.58A.45.45,0,0,0,79.56,306.27Zm-2.37,13.29a.43.43,0,0,0-.58.4,1.44,1.44,0,0,0-.67.9l-.09.49a3.81,3.81,0,0,0,1.56-.23l.58-.4a.44.44,0,0,0-.4-.58A.44.44,0,0,0,77.19,319.56ZM68.7,369.85l.58-.4a1.49,1.49,0,0,0-.31-1.08.5.5,0,0,0-1-.17,1.45,1.45,0,0,0-.67.89l-.08.5Zm19.82-28.46.09-.49a.89.89,0,0,0-.81-1.16l.26-1.47a23.41,23.41,0,0,0-5.5-.48c-1.37.09-2.2,1-2.5,2.6l-.17,1-1.48-.27a1.4,1.4,0,0,1-.89-.67,5.48,5.48,0,0,0-1.8-1.33,3.82,3.82,0,0,0,.76-1.39c.12-.66,0-1-.32-1.07l-1-.18a3.82,3.82,0,0,0-.76,1.39c-.12.65.32,1.07,1.3,1.25l-.53,2.95c-.71.21-1.1.48-1.16.81l.5.09-.09.49c.33.06.58-.41.75-1.39,1.65.29,2.57.8,2.78,1.51l-.17,1A2.06,2.06,0,0,1,77,346a8,8,0,0,0-.93,2.37l-.5-.09c-.11.66.29,1.24,1.22,1.74a5.69,5.69,0,0,0,1.84-3.22q.69-2.43,1.22-5.37l1.47.26a7.65,7.65,0,0,0-1.51,2.78c-.12.65,0,1,.32,1.07a2.39,2.39,0,0,0,1.66,2.07,18.38,18.38,0,0,0,2.91.78l1.47.26a8,8,0,0,0,.85-1.88,1.58,1.58,0,0,0-.72-1.65q-2-.36-1.76-4.38a1.69,1.69,0,0,0,1.61-.47,1.67,1.67,0,0,1,1.61-.48Q88,341.32,88.52,341.39ZM76.41,329.58a.88.88,0,0,0,.81,1.16L77,332.22c-.65-.12-1,0-1.07.31a.44.44,0,0,0,.41.58l.49.09q.23,1.56.72,1.65l.58-.4c.12-.66-.32-1.07-1.3-1.25l.17-1c.72-.22,1.11-.48,1.16-.81s-.24-.55-.89-.67l.26-1.48c.72-.21,1.1-.48,1.16-.81l.09-.49-.49-.09c-.33-.05-.58.41-.76,1.39C76.83,329.15,76.47,329.25,76.41,329.58Zm17.9-88.74a1.46,1.46,0,0,0-1.08.32.45.45,0,0,0-.58.4,1.5,1.5,0,0,0,.32,1.08,4,4,0,0,0,1.56-.23l.59-.41a.45.45,0,0,0-.41-.58A.45.45,0,0,0,94.31,240.84Zm-10.74,60a1.42,1.42,0,0,0-1.07.32.44.44,0,0,0-.58.4,1.45,1.45,0,0,0,.31,1.07l.5.09a1.43,1.43,0,0,0,1.07-.31.45.45,0,0,0,.58-.41.44.44,0,0,0-.41-.58A.44.44,0,0,0,83.57,300.89Zm1.06-5.9a.88.88,0,0,0-1.16.8,1.44,1.44,0,0,0,.31,1.08,8.17,8.17,0,0,0,1.94,3.39l.79-4.43c.71-.21,1.1-.48,1.16-.81l.09-.49-.5-.09c-.32-.06-.58.4-.75,1.39A4.33,4.33,0,0,0,84.63,295ZM97,276.88a.88.88,0,0,0-1.16.81,4.14,4.14,0,0,1-2.73,1,.44.44,0,0,1-.4-.58l-2.46-.44a2.88,2.88,0,0,0-2.06.14,2,2,0,0,0-.76,1.38,13.88,13.88,0,0,0,0,3c-.72.21-1.1.48-1.16.8l.49.09-.09.49c.33.06.58-.4.76-1.38,1.16-.81,1.9-1.19,2.23-1.13a3.2,3.2,0,0,1,.52,1.36,3.07,3.07,0,0,0,.52,1.37,1.4,1.4,0,0,0,.89.66l1.48.27.18-1a3.38,3.38,0,0,1,1.42-2.28c.66.12,1.07-.32,1.25-1.3a8.2,8.2,0,0,0-.05-2.55C96.56,277.48,97,277.21,97,276.88Zm-.7-38.73a1.48,1.48,0,0,0-1.07.32.44.44,0,0,0-.58.4A1.49,1.49,0,0,0,95,240a3.87,3.87,0,0,0,1.57-.23l.58-.41a.45.45,0,0,0-.4-.58A.45.45,0,0,0,96.31,238.15ZM74.45,363.26l.58-.4a1.49,1.49,0,0,0-.31-1.08l-1.48-.26a1.44,1.44,0,0,0-.67.9l.4.58Zm12.31-74.5-.59.41c0,.32.41.58,1.39.75.21.72.48,1.1.81,1.16l.58-.4c.06-.33-.4-.58-1.39-.76C87.35,289.21,87.08,288.82,86.76,288.76Zm-4.11,20.09,1,.18c1.64.29,2.8-.51,3.48-2.42l.09-.5a2.21,2.21,0,0,0-2-2.9Q84.49,307.15,82.65,308.85Zm-.56,6,.49.09-.08.49q-.09.49-1.17.81C81.51,315.25,81.76,314.79,82.09,314.85Zm14.91-72a1.44,1.44,0,0,0-1.08.31.45.45,0,0,0-.58.41,1.43,1.43,0,0,0,.32,1.07,3.81,3.81,0,0,0,1.56-.23l.58-.4a.44.44,0,0,0-.4-.58A.44.44,0,0,0,97,242.85Zm-8.64,42.64a1.44,1.44,0,0,0-.67.9l.4.58,1.48.26.58-.4a1.42,1.42,0,0,0-.32-1.07ZM77.74,356.23c.72-.21,1.1-.48,1.16-.81l.09-.49-2-.35-1.16.8-.09.5Zm41-231.91a1.45,1.45,0,0,0-.67.89l.4.58,1.48.27.26-1.48ZM75,377.08l.26-1.48a.44.44,0,0,0-.4-.58,1.42,1.42,0,0,0-1.07.32.43.43,0,0,0-.58.4,1.41,1.41,0,0,0,.31,1.07Zm9.49-58.75.49.09a2.05,2.05,0,0,1,.23,1.56c-.12.66-.34,1-.67.9l.09-.49c-.66-.12-1-.34-.9-.67C83.94,318.73,84.19,318.27,84.52,318.33Zm-.8,4.43.5.09-.09.49c-.06.33-.45.6-1.16.81C83.14,323.16,83.4,322.7,83.72,322.76Zm-.18,29.43.27-1.48a1.44,1.44,0,0,0-.9-.67,2,2,0,0,0-1.56.23c-1.38.09-2.57,1.07-3.57,2.92C80.79,353.39,82.71,353.05,83.54,352.19Zm-4.85,7.26c.71-.21,1.1-.48,1.16-.81l.09-.49-2-.36-1.16.81-.09.49Zm-2.25,9.75a.44.44,0,0,0,.4.58l.58-.4a2,2,0,0,0,.76-1.39c.11-.66-.32-1.07-1.3-1.25-.21-.71-.48-1.1-.81-1.16l-.58.4c-.06.33.4.59,1.39.76Zm24-128.78a1.46,1.46,0,0,0-1.08.32.45.45,0,0,0-.58.4,1.5,1.5,0,0,0,.32,1.08,4.05,4.05,0,0,0,1.57-.23l.17-1A.44.44,0,0,0,100.48,240.42Zm-6,27.88a1.44,1.44,0,0,0-.67.9l.4.58,1.48.26.26-1.47Zm-3.54,28.32.26-1.48a.45.45,0,0,0-.4-.58,1.5,1.5,0,0,0-1.08.32.45.45,0,0,0-.58.4,1.5,1.5,0,0,0,.32,1.08ZM77.67,362.31a1.44,1.44,0,0,0-.67.9l.4.58,1.48.26.27-1.47Zm3.69-20.67a1.33,1.33,0,0,1,1.75-1.21A1.33,1.33,0,0,1,81.36,341.64Zm7.36-38.3.49.08c.33.06.55-.24.67-.89a1.44,1.44,0,0,1,1.07-.32,3,3,0,0,1,2.2,1.92c.21.71.48,1.1.81,1.16q1,.18,1.83-1.71A10,10,0,0,0,92.87,300l-.49-.08c-1-.18-1.82.69-2.5,2.6C89.17,302.74,88.78,303,88.72,303.34Zm5.82-12.68.58-.4c.06-.33-.4-.58-1.39-.76-.21-.71-.48-1.1-.8-1.16l-.58.41c-.06.32.4.58,1.38.75C93.94,290.22,94.21,290.6,94.54,290.66ZM83.77,339.53c.33.06.6.45.81,1.16l-1.47-.26A1.42,1.42,0,0,1,83.77,339.53ZM88.67,315a.44.44,0,0,1,.58-.41,1.41,1.41,0,0,1,1.07-.31.44.44,0,0,1,.4.58l-.17,1a1.46,1.46,0,0,1-1.08.32l-.49-.09A1.42,1.42,0,0,1,88.67,315Zm-6.71,46-.09.49c.33.06.58-.41.76-1.39a1.42,1.42,0,0,0-.32-1.07l-.49-.09c-.33-.06-.55.24-.67.9A.88.88,0,0,0,82,361.05Zm13-64.22a1.43,1.43,0,0,0-1.07.32.44.44,0,0,0-.58.4,1.46,1.46,0,0,0,.32,1.08l1.47.26.27-1.48A.44.44,0,0,0,95,296.83Zm6.73-40.44-.09.49-.49-.09a.44.44,0,0,0,.4.58l1,.18q-.27,1.47.72,1.65l-.09.49a2,2,0,0,0,1.56-.23L105,258l-2.46-.44C102.28,256.83,102,256.44,101.69,256.39ZM88.35,328.16l.26-1.48c.89-1.19,1.5-1.76,1.83-1.7s.43.41.32,1.07l-.36,2a2.86,2.86,0,0,1-.84,1.88C88.9,329.78,88.5,329.2,88.35,328.16ZM100,283c.71-.21,1.1-.48,1.16-.81l.08-.49-2-.35c-1.05.15-1.6.39-1.66.72a.44.44,0,0,0,.41.58ZM89.14,338l1.56-.23a8.23,8.23,0,0,1,2.06-.14l-.09.49c-.06.33-.45.6-1.16.81l-2-.35A.44.44,0,0,1,89.14,338Zm-.24,12.66.27-1.48a3.87,3.87,0,0,0-1.57.23.44.44,0,0,0-.58.4l.41.58Zm17.19-42.14a2.08,2.08,0,0,0-1.57.23l-.58.41a.45.45,0,0,0,.41.58l2.46.44c.21.71.48,1.1.81,1.16l.08-.5c.06-.32-.24-.55-.89-.66C107,309.14,106.74,308.59,106.09,308.47Zm-.9,13.56a1.48,1.48,0,0,0,1.07-.32l.18-1a.44.44,0,0,0-.41-.58,1.42,1.42,0,0,0-1.07.31.44.44,0,0,0-.58.41,1.44,1.44,0,0,0,.32,1.07Zm.54,2.63.18-1a.44.44,0,0,0-.41-.58,1.43,1.43,0,0,0-1.07.31.45.45,0,0,0-.58.41,1.43,1.43,0,0,0,.32,1.07A3.81,3.81,0,0,0,105.73,324.66Zm1.73-6.8a1.44,1.44,0,0,0,1.07-.32l.18-1a.45.45,0,0,0-.41-.58,1.43,1.43,0,0,0-1.07.32.44.44,0,0,0-.58.4,1.45,1.45,0,0,0,.31,1.07Zm1.26,4.29a.44.44,0,0,0,.58-.4l.09-.5a.45.45,0,0,0-.4-.58,1.46,1.46,0,0,0-1.08.32.45.45,0,0,0-.58.4.79.79,0,1,0,1.39.76Zm5.22-3.64a.43.43,0,0,0,.58-.4l.09-.49a.43.43,0,0,0-.4-.58,1.41,1.41,0,0,0-1.07.31.45.45,0,0,0-.59.41,1.49,1.49,0,0,0,.32,1.07A1.42,1.42,0,0,0,113.94,318.51Zm25.77,3.59a1.44,1.44,0,0,0,1.08-.31.45.45,0,0,0,.58-.41.45.45,0,0,0-.41-.58.44.44,0,0,0-.4-.58.44.44,0,0,0-.58.41,1.45,1.45,0,0,0-.67.89l-.09.5Zm10.29-.7-.41-.58c-.65-.11-1.07.32-1.24,1.3l-1.48-.26a8.41,8.41,0,0,0,.84-1.88,1.41,1.41,0,0,0-.31-1.07l-.5-.09-.58.4a2.07,2.07,0,0,0-.75,1.39c-.12.66.31,1.07,1.3,1.25.21.71.48,1.1.81,1.16l.08-.49a.45.45,0,0,0,.59-.41Q149.91,321.9,150,321.4Zm12.42-63.81a.44.44,0,0,0-.58.41,1.49,1.49,0,0,0-.67.89l-.08.5a4,4,0,0,0,1.56-.23l.58-.41a.45.45,0,0,0-.4-.58A.45.45,0,0,0,162.42,257.59Zm-6.9,55.66a.88.88,0,0,0-1.16.81,4.47,4.47,0,0,0-1.88-.85.44.44,0,0,0-.58.41l-.49-.09c-.06.33.21.71.8,1.16a2,2,0,0,0,1.39.75c.33.06.58-.4.76-1.38l1.48.26c.48,1.1.88,1.68,1.21,1.74l.49.09a5.8,5.8,0,0,0,1.25-1.3l.09-.49a1.46,1.46,0,0,0-.32-1.08l-.49-.08c-.66-.12-1.4.25-2.23,1.12C156,313.66,155.85,313.31,155.52,313.25Zm-6,13.65a1.41,1.41,0,0,0,1.07-.31.5.5,0,0,0,.18-1,.5.5,0,1,0-1-.17,1.45,1.45,0,0,0-.67.89l-.09.5ZM171.24,214a1.44,1.44,0,0,0-.67.9l-.09.49,1.48.27.58-.41a1.43,1.43,0,0,0-.32-1.07Zm-.53,3a1.45,1.45,0,0,0-.67.89l-.09.5,1.48.26.58-.4a1.46,1.46,0,0,0-.32-1.08Zm-16,100.76.09-.5-.5-.08c-.32-.06-.58.4-.75,1.39-1-.18-1.51-.1-1.57.22a2,2,0,0,0,.23,1.57c.21.71.48,1.1.81,1.16l.09-.49a.45.45,0,0,0,.58-.41,4.52,4.52,0,0,0-.14-2.05C154.28,318.27,154.67,318,154.73,317.68Zm-4.26,12.44a1.41,1.41,0,0,0,1.07-.31.45.45,0,0,0,.58-.41.44.44,0,0,0-.4-.58.5.5,0,0,0-1-.17,1.4,1.4,0,0,0-.66.89L150,330ZM171.22,222.6a1.62,1.62,0,0,0,2.95.52l.09-.49c.06-.33-.48-1.1-1.62-2.32A4.89,4.89,0,0,0,171.22,222.6Zm19-97.69a1.44,1.44,0,0,0-.67.9l-.09.49,1.48.27.58-.41a1.43,1.43,0,0,0-.32-1.07Zm-.53,3a1.42,1.42,0,0,0-.67.89l-.09.49,1.48.27.58-.41a1.44,1.44,0,0,0-.32-1.07Zm-15,86.71-1.16.81-.08.49,2,.35c.72-.21,1.11-.48,1.16-.81l.09-.49ZM159.5,296.69a1.45,1.45,0,0,0-.67.89l-.09.5,1.48.26.58-.4a1.5,1.5,0,0,0-.32-1.08Zm-5.55,31a1.42,1.42,0,0,0,1.07-.32.44.44,0,0,0,.58-.4.43.43,0,0,0-.4-.58.44.44,0,0,0-.4-.58.43.43,0,0,0-.58.4,1.44,1.44,0,0,0-.67.9l-.09.49Zm11-50.35-.08.49c.32.06.58-.4.75-1.38a1.44,1.44,0,0,0-.31-1.08l-.5-.08c-.32-.06-.55.24-.66.89A.88.88,0,0,0,165,277.35Zm-9.54,56.2.58-.4a.44.44,0,0,0-.4-.58.44.44,0,0,0-.4-.58.43.43,0,0,0-.58.4,1.44,1.44,0,0,0-.67.9l-.09.49A3.81,3.81,0,0,0,155.44,333.55Zm-.79,4.43.58-.4a.79.79,0,0,0-1.39-.76,1.42,1.42,0,0,0-.66.9l-.09.49A3.81,3.81,0,0,0,154.65,338ZM143.9,392.44a1.42,1.42,0,0,0,1.07-.32.5.5,0,0,0,.18-1,.5.5,0,0,0-1-.18,1.42,1.42,0,0,0-.66.9l-.09.49Zm15-72.49.09-.5-.49-.08c-.33-.06-.58.4-.76,1.38-.71.21-1.1.48-1.16.81l.49.09c.33.06.56-.24.67-.9C158.45,320.54,158.83,320.27,158.89,320ZM174,235.29a.44.44,0,0,0-.58.4,1.44,1.44,0,0,0-.67.9l-.09.49.49.09a1.46,1.46,0,0,0,1.08-.32,1.13,1.13,0,0,0-.23-1.56Zm-2.64,14.76a.45.45,0,0,0-.58.41,1.45,1.45,0,0,0-.67.89l-.09.5.49.08a1.44,1.44,0,0,0,1.08-.31.5.5,0,0,0,.17-1A.44.44,0,0,0,171.39,250.05ZM164,288.36a1.49,1.49,0,0,0-.67.89l-.08.5,1.47.26.58-.4a1.44,1.44,0,0,0-.31-1.08ZM159,328.08a1.48,1.48,0,0,0-1.07.32.44.44,0,0,0-.58.41,1.44,1.44,0,0,0,.32,1.07l.49.09a1.48,1.48,0,0,0,1.07-.32.44.44,0,0,0,.58-.4,36.39,36.39,0,0,0-.81-1.17Zm-3.47,22.24.58-.4a1.44,1.44,0,0,0-.31-1.08,4.05,4.05,0,0,0-1.57.23.45.45,0,0,0-.58.41l.41.58Zm22-117.46a3.81,3.81,0,0,0-1.56.23c-.72.21-1.11.48-1.16.81l-.09.49.49.09a3.81,3.81,0,0,0,1.56-.23l1.08-.31.08-.5A.44.44,0,0,0,177.51,232.86Zm-18.13,101.4a2.06,2.06,0,0,1-.75,1.38,1.44,1.44,0,0,0-.67.9c-.06.33.86.83,2.77,1.51.22.72.49,1.1.81,1.16l.58-.4a.44.44,0,0,0-.4-.58l-1-.18.18-1a2.88,2.88,0,0,1,.85-1.88,1.59,1.59,0,0,0,1.24-1.3l-1-.18a2,2,0,0,1-1.39-.76,2,2,0,0,0-1.79-1.33A4.83,4.83,0,0,1,159.38,334.26Zm18.81-96.7a1.43,1.43,0,0,0-1.07.31.44.44,0,0,0-.58.41,1.43,1.43,0,0,0,.32,1.07l.49.09a1.42,1.42,0,0,0,1.07-.32.5.5,0,1,0,.18-1A.44.44,0,0,0,178.19,237.56Zm-1.05,5.9a1.42,1.42,0,0,0-1.07.32.44.44,0,0,0-.58.4,1.44,1.44,0,0,0,.31,1.08l.49.08a1.44,1.44,0,0,0,1.08-.31.5.5,0,0,0,.17-1A.44.44,0,0,0,177.14,243.46Zm-1.06,5.91a1.43,1.43,0,0,0-1.07.32.44.44,0,0,0-.58.4,1.42,1.42,0,0,0,.32,1.07l.49.09a1.43,1.43,0,0,0,1.07-.32.44.44,0,0,0,.58-.4,61,61,0,0,0-.81-1.16Zm-11.79,65.95a1.42,1.42,0,0,0-1.07.32.44.44,0,0,0-.58.4,1.49,1.49,0,0,0,.31,1.08l.5.08a1.43,1.43,0,0,0,1.07-.31,1.14,1.14,0,0,0-.23-1.57ZM159,347.9l.59-.41a.45.45,0,0,0-.41-.58.44.44,0,0,0-.4-.58,1.46,1.46,0,0,0-1.08.32.44.44,0,0,0-.58.4l.41.58Zm-1.84,10.33.58-.4a1.42,1.42,0,0,0-.32-1.07,3.75,3.75,0,0,0-1.56.22.44.44,0,0,0-.58.41l.4.58Zm4.73-32.17a1.48,1.48,0,0,0-.67.9c-.05.33.24.55.9.67l.49.09a7.38,7.38,0,0,0,1.52-2.78l.17-1c.12-.65,0-1-.31-1.07l-.59.41-.26,1.47A6,6,0,0,0,161.86,326.06Zm-3.78,35.39.58-.4a1.5,1.5,0,0,0-.32-1.08,3.87,3.87,0,0,0-1.57.23.45.45,0,0,0-.58.41l.41.58Zm-5.55,31,.58-.41a1.48,1.48,0,0,0-.31-1.07.45.45,0,0,0-.41-.58,1.43,1.43,0,0,0-1.07.32.44.44,0,0,0-.58.4,1.45,1.45,0,0,0,.31,1.07Zm30.13-171.37a1,1,0,1,0-.35,2c.33.06.55-.24.67-.89S183,221.14,182.66,221.09ZM153.18,386c.33.06.55-.24.67-.9s0-1-.31-1.07a1,1,0,1,0-.36,2Zm30-156.16.26-1.48a.44.44,0,0,0-.4-.58,1.49,1.49,0,0,0-1.08.31.45.45,0,0,0-.58.41,1.43,1.43,0,0,0,.32,1.07Zm2.53-5.65.26-1.47-1.47-.27a1.44,1.44,0,0,0-.67.9l.4.58Zm-5.72,32,.17-1a.44.44,0,0,0-.4-.58,1.42,1.42,0,0,0-1.07.32.44.44,0,0,0-.58.4,1.41,1.41,0,0,0,.31,1.07A3.81,3.81,0,0,0,180,256.16Z"/><path d="M232.73,378.5q.26,6,.75,11.5v10a22.21,22.21,0,0,1-1,5.5H227c-1.33,0-2,.33-2,1v.5h-1.5v-.5q0-1.5-3-1.5t-3,1.5v.5h-3c-.33-1-.66-1.5-1-1.5a2,2,0,0,0-.5,1.5h-1.5q-.49-1.5-1.5-1.5-1.5.5-1.5,1.5H207a65.09,65.09,0,0,1-.5-8,35.29,35.29,0,0,1,1-8.5,78.82,78.82,0,0,0,1-12,50.62,50.62,0,0,0-1-10,4.48,4.48,0,0,1-.5-2q0-3.5,3-7.5,3.51,0,4.5,3c-1,0-1.5.33-1.5,1a2,2,0,0,0,.5,1.5l.5.5a.44.44,0,0,0,.5-.5.44.44,0,0,0,.5-.5,4.35,4.35,0,0,0-.5-2h3q.51,3.5,1,6.5v.5c0,1.33-1,2-3,2h-1q-.49-1.5-1.5-1.5-1.5.5-1.5,1.5c-.66.33-1,.67-1,1h.5v.5c.34,0,.5-.5.5-1.5h3c.34,2.67,1,4,2,4v.5A4.09,4.09,0,0,0,219,374a10.82,10.82,0,0,0,2-3.25,10.45,10.45,0,0,0,1-4.25c.67,1,1.34,1.5,2,1.5.34,0,.67-.33,1-1v-1c0-.67-.66-1-2-1h-1c1.67-.33,2.5-1.5,2.5-3.5s.67-3.33,2-4V360a.44.44,0,0,0,.5.5l.5-.5a2,2,0,0,0,.5-1.5c0-.67-.5-1-1.5-1v-1c0-1-.33-1.5-1-1.5a14.91,14.91,0,0,1-3.5-.5v-1a.44.44,0,0,1,.5-.5H225a3.93,3.93,0,0,0,1.5.5,1.44,1.44,0,0,0,1-.5.44.44,0,0,0,.5-.5v-1h2.5v-1a3.83,3.83,0,0,0-1.5-.5c-.66,0-1,.5-1,1.5a5.49,5.49,0,0,0-2.75-2.75c-1.16-.5-2.25-.92-3.25-1.25a5.66,5.66,0,0,1-2.25-1.25c-.5-.5-.75-1.58-.75-3.25,1,0,1.5-.33,1.5-1a2,2,0,0,0-.5-1.5l-.5-.5H219v3c-1.66,0-2.5.17-2.5.5a8.56,8.56,0,0,0,.25,2,10.18,10.18,0,0,0,.75,2q0,1-1.5,1.5c-.33-1-.66-1.5-1-1.5a2,2,0,0,0-.5,1.5,2.85,2.85,0,0,1-2,1v-.5a5.62,5.62,0,0,1-2.5-.5h-1l-.5.5c0,.33.5,1,1.5,2-2.33-.67-3.5-2.33-3.5-5v-1a65.83,65.83,0,0,0,.5-7,94.74,94.74,0,0,0,.5-10.5q0-6.5-.5-14V284.5q.51-13.5.5-25t-.5-21q-.49-19-.5-37.5,0-13.5.5-26.5V107h25.5V368C232.48,371,232.57,374.5,232.73,378.5ZM212,353a2,2,0,0,1-.5,1.5c-1.33,1.33-2,2.33-2,3a2,2,0,0,0,.5,1.5,3.9,3.9,0,0,1-2.5-4,3.55,3.55,0,0,1,2.5-3.5C211.32,351.83,212,352.33,212,353Zm-1.5-22a1.44,1.44,0,0,0,1-.5.79.79,0,1,0-1-1,1.45,1.45,0,0,0-.5,1v.5Zm0-73.5c0,.67.67,1,2,1a3.93,3.93,0,0,0,1.5.5,2,2,0,0,0,2-1v-1a1.59,1.59,0,0,0-1-1.5h-1a3.38,3.38,0,0,0-2.5,1C210.82,256.83,210.48,257.17,210.48,257.5Zm2,74.5a.44.44,0,0,0-.5.5.44.44,0,0,0-.5.5l.5.5a2.07,2.07,0,0,0,1.5.5c.67,0,1-.5,1-1.5.67-.33,1-.67,1-1V331H215c-.33,0-.5.5-.5,1.5A4.45,4.45,0,0,0,212.48,332Zm1.5-82a1.47,1.47,0,0,0-1,.5.44.44,0,0,0-.5.5,1.45,1.45,0,0,0,.5,1h.5a1.44,1.44,0,0,0,1-.5,1.12,1.12,0,0,0-.5-1.5Zm.5,95.5.5-.5a.44.44,0,0,0-.5-.5.44.44,0,0,0-.5-.5,1.47,1.47,0,0,0-1,.5.44.44,0,0,0-.5.5,1.45,1.45,0,0,0,.5,1A3.83,3.83,0,0,0,214.48,345.5Zm0,43.5.5-.5a1.41,1.41,0,0,0-.5-1,.44.44,0,0,0-.5-.5,1.47,1.47,0,0,0-1,.5.44.44,0,0,0-.5.5,1.45,1.45,0,0,0,.5,1Zm0-3.5v.5q1,0,1.5-1.5a1.61,1.61,0,0,1-1.5-1H214c-.33,0-.66.33-1,1C213,385.17,213.48,385.5,214.48,385.5Zm1.5-122,.5-.5a.44.44,0,0,0-.5-.5.44.44,0,0,0-.5-.5,1.47,1.47,0,0,0-1,.5.44.44,0,0,0-.5.5,1.45,1.45,0,0,0,.5,1A3.83,3.83,0,0,0,216,263.5Zm0,73,.5-.5a.44.44,0,0,0-.5-.5.44.44,0,0,0-.5-.5,1.47,1.47,0,0,0-1,.5.44.44,0,0,0-.5.5,1.45,1.45,0,0,0,.5,1A3.83,3.83,0,0,0,216,336.5Zm-1.5,30a1.45,1.45,0,0,0-.5,1l.5.5H216l.5-.5a1.41,1.41,0,0,0-.5-1Zm1-144.5-1,1v.5h.5a3.83,3.83,0,0,0,1.5-.5l1-.5V222Zm1.5,99.5.5-.5c0-.33-.5-.5-1.5-.5-.33-.67-.66-1-1-1l-.5.5c0,.33.5.5,1.5.5C216.32,321.17,216.65,321.5,217,321.5Zm-2.5,27.5H216v2.5C215,351.5,214.48,350.67,214.48,349Zm1.5,2.5a27.4,27.4,0,0,0,3,1.75,22.46,22.46,0,0,0,3,1.25,6,6,0,0,1,1.5,3v.5H221a26.89,26.89,0,0,1-3.5-1.5,11.75,11.75,0,0,1-3-2Q216,354.5,216,351.5ZM216,191a.44.44,0,0,0-.5.5l.5.5h1.5l.5-.5a1.41,1.41,0,0,0-.5-1A3.93,3.93,0,0,0,216,191Zm0,63a2,2,0,0,0,.5,1.5h.5a1.44,1.44,0,0,0,1-.5,2.85,2.85,0,0,0,.5-2c0-.67-.83-1-2.5-1Zm1,25.5a.44.44,0,0,0-.5-.5l-.5,1a4.48,4.48,0,0,0,.5,2,.44.44,0,0,0,.5.5l.5-1A4.35,4.35,0,0,0,217,279.5Zm4.5,98a.89.89,0,0,0-1,1A1.33,1.33,0,0,0,219,380h-1.5c-.33-.67-.66-1-1-1l-.5.5c0,.33.5.5,1.5.5,0,1.67.34,2.5,1,2.5a2,2,0,0,0,.5-1.5v-1l.5.5c.67,0,1-.67,1-2C221.15,378.17,221.48,377.83,221.48,377.5Zm-4-170.5a1.45,1.45,0,0,0-.5,1l.5.5H219l.5-.5a1.41,1.41,0,0,0-.5-1Zm.5,27a1.44,1.44,0,0,0,1-.5,1.12,1.12,0,0,0-.5-1.5,1.47,1.47,0,0,0-1,.5.44.44,0,0,0-.5.5,1.45,1.45,0,0,0,.5,1Zm.5-15,.5-.5c.34,0,.84-.33,1.5-1a1.59,1.59,0,0,0-1-1.5H219q-1,0-1.5,1.5C217.82,218.5,218.15,219,218.48,219Zm0,41v.5c.34,0,.5-.33.5-1a2,2,0,0,0-.5-1.5H218c-.33,0-.5.5-.5,1.5C217.48,259.83,217.82,260,218.48,260Zm0,10.5v.5c.34,0,.5-.5.5-1.5a1.41,1.41,0,0,0-.5-1H218c-.33,0-.5.33-.5,1A.89.89,0,0,0,218.48,270.5Zm-1,89h1a3.76,3.76,0,0,1,.5,1.5c0,.67-.5,1-1.5,1Zm3-130V228a.44.44,0,0,0-.5-.5,1.47,1.47,0,0,0-1,.5.44.44,0,0,0-.5.5,1.45,1.45,0,0,0,.5,1Zm0,120.5H219l-.5-.5a.44.44,0,0,1,.5-.5,1.47,1.47,0,0,1,1-.5.44.44,0,0,1,.5.5ZM220,195.5l-1,.5v.5h2c.67-.33,1-.67,1-1V195A8.39,8.39,0,0,0,220,195.5Zm0,28.5a1,1,0,0,0,0,2c.34,0,.5-.33.5-1S220.32,224,220,224Zm0,163c.34,0,.5-.33.5-1s-.16-1-.5-1a1,1,0,0,0,0,2Zm.5-248.5a1.45,1.45,0,0,0-.5,1l.5.5H222v-1.5Zm1,113a1.47,1.47,0,0,0-1,.5.44.44,0,0,0-.5.5,1.45,1.45,0,0,0,.5,1h.5a1.44,1.44,0,0,0,1-.5v-1A.44.44,0,0,0,221.48,251.5ZM221,319a1.44,1.44,0,0,0,1-.5v-1a.44.44,0,0,0-.5-.5,1.47,1.47,0,0,0-1,.5.44.44,0,0,0-.5.5,1.45,1.45,0,0,0,.5,1Zm0,13.5a1.44,1.44,0,0,0,1-.5v-1a.44.44,0,0,0-.5-.5,1.47,1.47,0,0,0-1,.5.44.44,0,0,0-.5.5,1.45,1.45,0,0,0,.5,1Zm.5-71v.5c.34,0,.5-.33.5-1a2,2,0,0,0-.5-1.5H221c-.33,0-.5.5-.5,1.5C220.48,261.33,220.82,261.5,221.48,261.5Zm1,19a2,2,0,0,0-2,1c.34,1,.67,1.5,1,1.5l.5-.5c.34,0,.84-.33,1.5-1A.88.88,0,0,0,222.48,280.5ZM221,366c0-.33.34-.67,1-1v1.5C221.32,366.5,221,366.33,221,366Zm2-213a1.47,1.47,0,0,0-1,.5.44.44,0,0,0-.5.5,1.45,1.45,0,0,0,.5,1h.5a1.44,1.44,0,0,0,1-.5v-1A.44.44,0,0,0,223,153Zm-1,66a1.45,1.45,0,0,0-.5,1l.5.5h1.5V219Zm0,51a.44.44,0,0,0-.5.5l.5.5h1.5v-1.5A3.93,3.93,0,0,0,222,270Zm1.5,16v-1.5H222a1.45,1.45,0,0,0-.5,1l.5.5Zm.5-61.5a1.44,1.44,0,0,0-1-.5l-.5.5a1.45,1.45,0,0,0-.5,1,.44.44,0,0,0,.5.5c0,1,.84,1.67,2.5,2v2.5a.44.44,0,0,0,.5.5l.5-.5a2,2,0,0,0,.5-1.5c0-.67-.5-1-1.5-1C225,226,224.65,224.83,224,224.5Zm0,52.5c.67-.33,1-.67,1-1v-.5a8.39,8.39,0,0,0-2,.5l-1,.5v.5Zm-1,95v.5c.34,0,.5-.5.5-1.5a1.41,1.41,0,0,0-.5-1h-.5c-.33,0-.5.33-.5,1A.89.89,0,0,0,223,372Zm1-129a1.44,1.44,0,0,0,1-.5v-1a.44.44,0,0,0-.5-.5,1.47,1.47,0,0,0-1,.5.44.44,0,0,0-.5.5,1.45,1.45,0,0,0,.5,1Zm.5,72.5a1.47,1.47,0,0,0-1,.5.44.44,0,0,0-.5.5,1.45,1.45,0,0,0,.5,1h.5a1.44,1.44,0,0,0,1-.5v-1A.44.44,0,0,0,224.48,315.5ZM224,322a3.83,3.83,0,0,0,1.5-.5l1-.5v-.5c0-.33-.33-.5-1-.5a1.47,1.47,0,0,0-1,.5c-1,.33-1.5.67-1.5,1l.5.5Zm1,62.5V383h-1.5a1.45,1.45,0,0,0-.5,1l.5.5Zm1.5-6a1.44,1.44,0,0,0,1-.5c.34,0,.5-.33.5-1v-.5l-1-1h-.5q-.49,0-1.5,1.5c-.33-.67-.66-1-1-1l-.5.5c0,.33.5.5,1.5.5v1.5c-.66.33-1,.67-1,1h.5v.5c.34,0,.5-.5.5-1.5ZM225,216a1.45,1.45,0,0,0-.5,1l.5.5h1.5V216Zm1.5,71.5V286H225a1.45,1.45,0,0,0-.5,1l.5.5Zm3,85.5a2,2,0,0,0-.5-1.5,8.37,8.37,0,0,1-2.5-.5c-.33-.67-.66-1-1-1v.5H225a.44.44,0,0,0,.5.5h1v.5c0,1.67,1,2.5,3,2.5Zm-2-126a1.47,1.47,0,0,0-1,.5.44.44,0,0,0-.5.5,1.45,1.45,0,0,0,.5,1h.5a1.44,1.44,0,0,0,1-.5v-1A.44.44,0,0,0,227.48,247Zm-.5,6.5a1.44,1.44,0,0,0,1-.5v-1a.44.44,0,0,0-.5-.5,1.47,1.47,0,0,0-1,.5.44.44,0,0,0-.5.5,1.45,1.45,0,0,0,.5,1Zm1,11.5v-1a.44.44,0,0,0-.5-.5,1.47,1.47,0,0,0-1,.5.44.44,0,0,0-.5.5,1.45,1.45,0,0,0,.5,1A3.83,3.83,0,0,0,228,265Zm0,3v-1a.44.44,0,0,0-.5-.5,1.47,1.47,0,0,0-1,.5.44.44,0,0,0-.5.5l.5.5Zm0,121v-1.5a.44.44,0,0,0-.5-.5,1.47,1.47,0,0,0-1,.5.44.44,0,0,0-.5.5,1.45,1.45,0,0,0,.5,1Zm.5-55a1.44,1.44,0,0,0,1-.5v-1a.44.44,0,0,0-.5-.5,1.47,1.47,0,0,0-1,.5.44.44,0,0,0-.5.5,1.45,1.45,0,0,0,.5,1Zm1,14.5v-1a.44.44,0,0,0-.5-.5,1.47,1.47,0,0,0-1,.5.44.44,0,0,0-.5.5,1.45,1.45,0,0,0,.5,1A3.83,3.83,0,0,0,229.48,348.5Zm0,7.5v-1.5a3.93,3.93,0,0,0-1.5.5.44.44,0,0,0-.5.5l.5.5Zm1.5,6v-1.5a3.93,3.93,0,0,0-1.5.5.44.44,0,0,0-.5.5l.5.5Z"/><path d="M371.87,379.21a4.38,4.38,0,0,1,.92,1.84,1.47,1.47,0,0,1-.27,1.09q-.75,1.19-6.12,2.4t-12,2.44l-12.79,2.35c-4.11.75-7,1.31-8.6,1.68q-10.72,2.4-19.62,3.89l-3.41.76a58,58,0,0,0-14.2,5.24l-1.47.33L228.62,108.51l77.08-17.3A8.61,8.61,0,0,1,308,94.78l.33,1.47a12.45,12.45,0,0,0,0,6.67l.65,2.93a24.07,24.07,0,0,0,1.48,4.28l2.29,5.63q-.76,1.2-5.64,2.29-5.37,1.22-12,2.44L281.82,123c-4.42.82-7.78,1.49-10.05,2l-12.69,2.85c-.5.79-.32,3.14.56,7s2,8.36,3.25,13.37,2.55,9.84,3.78,14.52,2.08,8.16,2.59,10.44L294.33,284.9a94.35,94.35,0,0,1,1.44,11,31.37,31.37,0,0,0,.6,5,12.53,12.53,0,0,0,2.89,6c.54.91,1.79,1.14,3.74.7a15,15,0,0,0,3.31-1.25,58,58,0,0,1,10-3.28c3.9-.87,7.51-1.52,10.84-1.92a9.25,9.25,0,0,0,3-.17,14.58,14.58,0,0,0,5.15-2.18,55.49,55.49,0,0,1,.34,6.07,37,37,0,0,0,1.15,7.43,24.71,24.71,0,0,0,2.78,5.53,8,8,0,0,1,1.74,3.19,3.4,3.4,0,0,1-.42,2.66,7.07,7.07,0,0,1-3.69,1.85q-2.92.66-5.91,1.07a47.94,47.94,0,0,1-5.53.48l-2.44.54a59.39,59.39,0,0,1-10.46,1.33l-3.42.76c-1.95.44-3,1-3.19,1.75-.33.07-.31,2,0,5.88s.84,7.92,1.46,12.23a80.4,80.4,0,0,0,1.48,8.89,16.26,16.26,0,0,0,1.37,3.79q1.3,5.85,2.61,7.1c.47.58,2.44.56,5.89,0s6.8-1.27,10-2q5.37-1.2,12.33-3.28t13.69-4.1a48.47,48.47,0,0,0,6.72-2l1.46-.32a2.87,2.87,0,0,1,2.07,0,3.9,3.9,0,0,1,2.23,3.08,16.2,16.2,0,0,1,.38,4,21.5,21.5,0,0,0,.18,7.65,19.15,19.15,0,0,0,1.47,4.28A6.12,6.12,0,0,0,371.87,379.21Zm-79.95-29.72-.33-1.46a3.81,3.81,0,0,0-1.35.82.43.43,0,0,0-.38.59l.6.38ZM274.07,270a.44.44,0,0,0-.37.6l.59.38,1.47-.33-.33-1.46A3.76,3.76,0,0,0,274.07,270Zm26.15,107.38a1.43,1.43,0,0,0-.71-.86l-.48.11a1.4,1.4,0,0,0-.87.7,1.47,1.47,0,0,0-.27,1.09.45.45,0,0,0,.6.38.44.44,0,0,0,.59.38,1.45,1.45,0,0,0,.87-.71A1.47,1.47,0,0,0,300.22,377.35ZM243.91,133.26l-.38.6c.07.32.6.38,1.57.16.47.57.87.83,1.2.75l-.11-.48c-.07-.33-.44-.42-1.09-.27C244.63,133.44,244.23,133.19,243.91,133.26ZM248.6,145a1.42,1.42,0,0,0-.87.71.44.44,0,0,0-.38.59,1.45,1.45,0,0,0,.71.87l1.46-.33-.33-1.46A.44.44,0,0,0,248.6,145Zm4.22,21.09a1.46,1.46,0,0,0,.86-.71l-.22-1a.43.43,0,0,0-.59-.37,1.4,1.4,0,0,0-.87.7.45.45,0,0,0-.38.6,1.44,1.44,0,0,0,.71.87Zm46.79,206.26c-.9.54-1.31,1-1.24,1.3a.45.45,0,0,0,.6.38l1.95-.44c.58-.47.83-.87.75-1.19l-.11-.49ZM249.08,140.3a1.42,1.42,0,0,0-.87.71.44.44,0,0,0-.38.59,1.42,1.42,0,0,0,.71.87l1.46-.33-.33-1.46A.44.44,0,0,0,249.08,140.3Zm2.9,15.23a1.43,1.43,0,0,0,.87-.7l-.22-1a.44.44,0,0,0-.6-.38,1.47,1.47,0,0,0-.87.71.44.44,0,0,0-.37.6,1.44,1.44,0,0,0,.7.86Zm52.87,231-.33-1.46a.44.44,0,0,0-.6-.38,1.43,1.43,0,0,0-.86.71.44.44,0,0,0-.38.6,1.43,1.43,0,0,0,.71.86ZM246.39,126a1.47,1.47,0,0,0-.27,1.09l.6.38,1.46-.33-.33-1.47Zm1.31,5.86a1.45,1.45,0,0,0-.27,1.08l.6.38,1.46-.33-.32-1.46Zm23.09,98.33a1.44,1.44,0,0,0-.86.7.44.44,0,0,0-.38.6,1.46,1.46,0,0,0,.7.87l.49-.11a1.45,1.45,0,0,0,.87-.71l-.22-1A.44.44,0,0,0,270.79,230.23Zm30.6,134-.33-1.46-1.47.33a1.4,1.4,0,0,0-.26,1.08l.59.38Zm4.42,12.84-.33-1.46L304,376a1.46,1.46,0,0,0-.27,1.08l.6.38ZM255.38,145.55l-.33-1.47a.44.44,0,0,0-.6-.37,1.45,1.45,0,0,0-.87.7.44.44,0,0,0-.37.6,1.49,1.49,0,0,0,.7.87ZM305.3,368l-.33-1.46-1.46.33a1.37,1.37,0,0,0-.27,1.08l.59.38ZM281.82,265.67l.11.49c.32-.07.38-.6.16-1.57a1.42,1.42,0,0,0-.71-.87l-.49.11c-.32.07-.41.43-.26,1.09A.87.87,0,0,0,281.82,265.67ZM257.32,140.5,257,139a.44.44,0,0,0-.6-.38,1.44,1.44,0,0,0-.86.7.45.45,0,0,0-.38.6,1.42,1.42,0,0,0,.71.87Zm58.09,240.62a1.47,1.47,0,0,0,.27-1.09l-.11-.49a.43.43,0,0,0-.59-.37,1.43,1.43,0,0,0-.87.7.45.45,0,0,0-.38.6,1.44,1.44,0,0,0,.71.87ZM273.54,116.87a1.47,1.47,0,0,0-.27,1.09l.11.49,1.46-.33.38-.6a1.44,1.44,0,0,0-.7-.86Z"/><path d="M455.47,91a4.48,4.48,0,0,0,.5,2,65.09,65.09,0,0,0,.5,8c.33,2.67.67,5,1,7a8.39,8.39,0,0,1,.5,2c0,.67-.17,1-.5,1q-2,2-8,2H447q-8-.5-16-.5a136.62,136.62,0,0,1-16-1h-5.5q-4,0-5.5,1c-1.33,1-2.17,3.67-2.5,8a82.26,82.26,0,0,0-.5,9,18.72,18.72,0,0,0,.5,4.5q0,7.5.5,14.25t.5,9.25V236q-.5,6.5-.5,12.5,0,12,.5,23.5,0,7.5-.5,15v4.5c0,2.67.17,4.17.5,4.5a2.94,2.94,0,0,0,2.5,1.5,3.93,3.93,0,0,0,1.5-.5,13.31,13.31,0,0,1,5-1,2.87,2.87,0,0,1,2,1,2,2,0,0,0,1.5.5h1a62.34,62.34,0,0,1,12-1.5,23.49,23.49,0,0,1,4.5-.5c3.67,0,5.83.83,6.5,2.5q.5,3,1,11.5a2.25,2.25,0,0,1-.75,2c-.5.33-.75.67-.75,1a1.68,1.68,0,0,0,.75,1.5,1.68,1.68,0,0,1,.75,1.5l-1,1c-.67.67-1,1.17-1,1.5a.44.44,0,0,0,.5.5,1.77,1.77,0,0,1,2,2,1.45,1.45,0,0,1-.5,1q-1.5,1-5.5,1t-8.5-.25c-3-.17-5.83-.33-8.5-.5s-4.17-.25-4.5-.25a34,34,0,0,0-5.5-.5c-2,0-3.17.17-3.5.5-1.33,1-2.17,3.83-2.5,8.5a87,87,0,0,0-.5,9.5,25.69,25.69,0,0,0,.5,5q0,8,.5,15.25c.33,4.83.5,7.92.5,9.25v12.5q0,4.5-6,5.5H395a3.89,3.89,0,0,0-3.5-1.5h-5q-3,0-5.75-.25A6.16,6.16,0,0,1,377,384c-.33-.33-.5-2-.5-5V369q0-5.5.25-11.25T377,348V87h79A13.09,13.09,0,0,0,455.47,91Zm-75,132a1.45,1.45,0,0,0,1-.5.5.5,0,0,0,0-1V221a1.77,1.77,0,0,0-1.5,1.5v.5Zm3.5-67.5a3.93,3.93,0,0,0-1.5.5c-.67.33-1,.67-1,1v.5a15.42,15.42,0,0,0,2.5-.5l1-.5a.44.44,0,0,0-.5-.5A.44.44,0,0,0,384,155.5Zm-1.5,81.5v.5c.33,0,.5-.33.5-1V234h-1l-.5,1A2.87,2.87,0,0,0,382.47,237Zm-.5-74.5a2.91,2.91,0,0,0,2,.5,4.48,4.48,0,0,0,2-.5V162q0-.5-1.5-1.5C382.8,161.5,382,162.17,382,162.5Zm3.5-8.5a1.45,1.45,0,0,0,1-.5,3.62,3.62,0,0,0,0-5h-1A4.09,4.09,0,0,0,383,150v3A4.82,4.82,0,0,0,385.47,154ZM384,207.5a.44.44,0,0,0-.5.5,1.45,1.45,0,0,0-.5,1v.5h1.5l.5-.5a1.45,1.45,0,0,0-.5-1A.44.44,0,0,0,384,207.5Zm.5,37.5.5-.5a.44.44,0,0,0-.5-.5.5.5,0,0,0-1,0,1.45,1.45,0,0,0-.5,1v.5A3.93,3.93,0,0,0,384.47,245Zm2-31H386q-1,0-1.5,1.5a2.91,2.91,0,0,1,2,.5.44.44,0,0,0,.5.5l.5-1A1.59,1.59,0,0,0,386.47,214Zm1,4c-1,0-1.83.67-2.5,2a3.93,3.93,0,0,0-.5,1.5q0,1,1.5,1.5v.5q0,1.5,3,1.5t3-1.5V223a4.09,4.09,0,0,0-2.5-1.5v.5c-.33.67-1.5,1-3.5,1a4,4,0,0,1,1.75-2.25A2.46,2.46,0,0,0,389,218.5,2,2,0,0,0,387.47,218ZM386,273.5l.5-.5a1.45,1.45,0,0,0-.5-1h-1a1.45,1.45,0,0,0-.5,1v.5ZM397.47,138a2,2,0,0,0,1.5-.5l.5-.5v-.5a1.45,1.45,0,0,0-1-.5,8.39,8.39,0,0,0-2,.5Q396,135,395,135q-1.5.5-1.5,1.5-2-2.5-3.5-2.5a1.45,1.45,0,0,0-1,.5c-.67.33-1,.67-1,1,0,.67.83,1.5,2.5,2.5a16,16,0,0,0-1.75,1,3.73,3.73,0,0,0-1.25,2h-1a1.45,1.45,0,0,0-1,.5,5.62,5.62,0,0,0-.5,2.5,5.24,5.24,0,0,0,.75,2.75,4.38,4.38,0,0,0,1.75,1.75l-.5-.5a1.45,1.45,0,0,1,.5-1,5.63,5.63,0,0,1,2-2,5.35,5.35,0,0,1,3-1c.67,0,1,.5,1,1.5H392l-1,2a5.62,5.62,0,0,0-.5,2.5c-.67.33-1,.67-1,1h.5a.44.44,0,0,0,.5-.5V150a4.8,4.8,0,0,0,3-4.5,2.87,2.87,0,0,0,2,1c.67,0,1-.83,1-2.5,1-.33,1.5-.67,1.5-1l-.5-.5c-.67,0-1,.5-1,1.5-1.33-1.33-2.5-2-3.5-2a1.45,1.45,0,0,0-1,.5,3.93,3.93,0,0,1-1.5.5c-.33,0-.5-.33-.5-1l.5-1a1.59,1.59,0,0,1,1.5-1h1v.5a.44.44,0,0,0,.5-.5c0-.33-1-1-3-2q3,0,3-1.5h3C396.47,137.5,396.8,138,397.47,138ZM385,232.5h.5c0,.67.17,1,.5,1,0,1,.33,1.5,1,1.5a2,2,0,0,0,1.5-.5l.5-.5v-.5a1.45,1.45,0,0,0-1-.5,8.39,8.39,0,0,0-2,.5V232c1-.33,1.5-.67,1.5-1l-.5-.5c-.67,0-1,.5-1,1.5C385.3,232,385,232.17,385,232.5Zm1.5-127.5a1.45,1.45,0,0,0-.5,1v.5h1.5l.5-.5a1.45,1.45,0,0,0-.5-1Zm.5,193.5a.44.44,0,0,0-.5.5,1.45,1.45,0,0,0-.5,1v.5h.5a1.45,1.45,0,0,0,1-.5,1.12,1.12,0,0,0-.5-1.5Zm2.5,21a3.93,3.93,0,0,0-.5-1.5,12.88,12.88,0,0,0-1.25-2c-.5-.67-.92-1-1.25-1s-.5.67-.5,2c0,.33.5,1,1.5,2,.33.67.67,1,1,1h.5Zm1-115.5a2,2,0,0,0-.5-1.5.44.44,0,0,0-.5-.5l-.5.5V205h-.5c-.67,0-1,.5-1,1.5-.67.33-1,.67-1,1h.5v.5a.44.44,0,0,0,.5-.5v-1h.5c.67,0,1-.5,1-1.5C390,205,390.47,204.67,390.47,204Zm0,40v1.5l-1,.5h.5a.44.44,0,0,0,.5.5v-1c1-.33,1.5-.67,1.5-1a2,2,0,0,0-1.5-.5v-.5c0-.67-.5-1-1.5-1V242c0-.67-.5-1-1.5-1-.33-1-.67-1.5-1-1.5v.5a.88.88,0,0,0,1,1q0,1,1.5,1.5Q389,243.51,390.47,244ZM389,141.5l-.5.5c-.33,0-.67-.33-1-1C388.47,141,389,141.17,389,141.5Zm2,94q-1.5,0-3.5,2.5a2.87,2.87,0,0,0,2,1,3.93,3.93,0,0,0,1.5-.5,4.82,4.82,0,0,0,2.5-2A3.38,3.38,0,0,0,391,235.5Zm-3,59a1.45,1.45,0,0,0,1-.5.79.79,0,1,0-1-1,1.45,1.45,0,0,0-.5,1v.5Zm0,10.5a1.45,1.45,0,0,0,1-.5.79.79,0,1,0-1-1,1.45,1.45,0,0,0-.5,1v.5Zm6-137.5a.44.44,0,0,0-.5-.5,3.19,3.19,0,0,0-1.25-.75,3.19,3.19,0,0,1-1.25-.75,1.45,1.45,0,0,1-.5-1v-1c1-.33,1.5-.67,1.5-1l-.5-.5c-.67,0-1,.5-1,1.5-1.33,0-2,.5-2,1.5a1.45,1.45,0,0,0,.5,1,11.61,11.61,0,0,0,1.5,3c-.67.33-1,.67-1,1h.5v.5a.44.44,0,0,0,.5-.5v-1h3A3.93,3.93,0,0,0,394,167.5Zm-4.5-56.5a1.45,1.45,0,0,0-.5,1v.5h1.5l.5-.5a1.45,1.45,0,0,0-.5-1Zm1,79,.5-.5a1.45,1.45,0,0,0-.5-1h-1a1.45,1.45,0,0,0-.5,1v.5Zm0,64,.5-.5a.79.79,0,0,0-1.5-.5l-.5.5v.5Zm.5-149a1.45,1.45,0,0,0-.5,1v.5H392l.5-.5a1.45,1.45,0,0,0-.5-1Zm0,162.5a1.45,1.45,0,0,0-.5,1v.5H392l.5-.5a1.45,1.45,0,0,0-.5-1Zm0,16.5a1.45,1.45,0,0,0-.5,1v.5H392l.5-.5a1.45,1.45,0,0,0-.5-1Zm.5,19a.44.44,0,0,0-.5.5,1.45,1.45,0,0,0-.5,1v.5h.5a1.45,1.45,0,0,0,1-.5,1.12,1.12,0,0,0-.5-1.5Zm0,15a.44.44,0,0,0-.5.5,1.45,1.45,0,0,0-.5,1v.5a3.93,3.93,0,0,0,1.5-.5l.5-.5a.44.44,0,0,0-.5-.5A.44.44,0,0,0,391.47,318Zm1.5,4.5,1-.5a.44.44,0,0,0-.5-.5.44.44,0,0,0-.5-.5,3.93,3.93,0,0,0-1.5.5c-.67.33-1,.67-1,1v.5A15.42,15.42,0,0,0,393,322.5Zm.5-150.5.5-.5a.79.79,0,0,0-1.5-.5l-.5.5v.5Zm-.5,31c.33,0,.5-.33.5-1s-.17-1-.5-1a1,1,0,0,0,0,2Zm.5,52.5.5-.5a.79.79,0,0,0-1.5-.5l-.5.5v.5Zm0,7.5.5-.5a.79.79,0,0,0-1.5-.5l-.5.5v.5Zm-1,39a1.45,1.45,0,0,0,1-.5.79.79,0,1,0-1-1,1.45,1.45,0,0,0-.5,1v.5ZM397,166a3.93,3.93,0,0,0-.5-1.5c-.33-.67-.75-1.42-1.25-2.25S394.3,161,394,161s-.5.83-.5,2.5c0,.33.5,1,1.5,2,.33.67.67,1,1,1h.5Zm-2,51.5h-.5c-.33,0-.67.33-1,1,0,.67.5,1,1.5,1v.5q1,0,1.5-1.5A1.59,1.59,0,0,1,395,217.5Zm0,32,.5-.5a.79.79,0,0,0-1.5-.5l-.5.5v.5Zm0,68.5.5-.5a.44.44,0,0,0-.5-.5.5.5,0,0,0-1,0,1.45,1.45,0,0,0-.5,1v.5A3.93,3.93,0,0,0,395,318Zm1.5-109.5a2,2,0,0,0-.5-1.5.44.44,0,0,0-.5-.5l-.5.5v2.5c-.67.33-1,.67-1,1h.5v.5c.33,0,.5-.5.5-1.5C396,209.5,396.47,209.17,396.47,208.5Zm-.5-80a.44.44,0,0,0-.5.5,1.45,1.45,0,0,0-.5,1v.5h1.5l.5-.5a1.45,1.45,0,0,0-.5-1A.44.44,0,0,0,396,128.5Zm-.5,28a.44.44,0,0,0,.5.5l.5-1v-2.5h-1l-.5,1A4.48,4.48,0,0,0,395.47,156.5Zm1,84,.5-.5a.44.44,0,0,0-.5-.5.5.5,0,0,0-1,0,1.45,1.45,0,0,0-.5,1v.5A3.93,3.93,0,0,0,396.47,240.5Zm0,6,.5-.5a.44.44,0,0,0-.5-.5.5.5,0,0,0-1,0,1.45,1.45,0,0,0-.5,1v.5A3.93,3.93,0,0,0,396.47,246.5ZM396,276v.5c.33,0,.5-.5.5-1.5a1.45,1.45,0,0,0-.5-1h-.5c-.33,0-.5.33-.5,1A.88.88,0,0,0,396,276Zm2-20.5.5-.5a.79.79,0,0,0-1.5-.5l-.5.5v.5Zm2-41.5a1.45,1.45,0,0,0,1-.5.79.79,0,1,0-1-1,1.45,1.45,0,0,0-.5,1v.5Zm26.5-118V94.5a3.93,3.93,0,0,0-1.5.5.44.44,0,0,0-.5.5l.5.5Zm7.5,4.5V99a3.93,3.93,0,0,0-1.5.5.44.44,0,0,0-.5.5l.5.5Z"/><path d="M564.84,278.15a101.34,101.34,0,0,1,1.34,18.78,133.79,133.79,0,0,1-1.57,18A75.44,75.44,0,0,1,560.78,330a12.6,12.6,0,0,1-1.68,3.57,17.71,17.71,0,0,0-1.77,3.08,48.58,48.58,0,0,0-2.88,7.07,30.93,30.93,0,0,1-2.55,6,42.24,42.24,0,0,1-7.37,9.08,57.75,57.75,0,0,0-5.47,5.22,68.42,68.42,0,0,0-5.34,5.95,40.13,40.13,0,0,1-7.73,6.86c-4.82,3.51-8.16,5.84-10,7a58.85,58.85,0,0,1-6.05,3.28q-1.4.74-4.48,2t-6.66,2.63a35.12,35.12,0,0,1-6.53,1.85,1.44,1.44,0,0,1-.91.65,4.06,4.06,0,0,1-3.12-.49c-.38-.28-.85-1.55-1.39-3.83s-1.07-4.89-1.56-7.85q-.66-3.94-1-7.68c-.24-2.5-.23-3.93.05-4.32a10.24,10.24,0,0,1,3.24-1.8l6.62-2.88a114,114,0,0,0,14.06-6.9,52.12,52.12,0,0,0,11.6-9.53,66.62,66.62,0,0,0,14.23-21.11,82.07,82.07,0,0,0,6.34-28.93q.09-5.6-.4-14.64l-.66-3.94a55.81,55.81,0,0,0-4.35-14,53.67,53.67,0,0,0-6.57-10.56,55.43,55.43,0,0,0-8.87-9.17,69,69,0,0,0-11.09-8.8q-6.25-4-11.34-7.24-1.81-1.74-6.66-3.46a51.69,51.69,0,0,1-7.64-3.29,24.5,24.5,0,0,0-5.06-1.44,15,15,0,0,1-4.56-1.53,3.39,3.39,0,0,1-1-1.6c-.31-.79-.62-1.16-.95-1.11a32.48,32.48,0,0,1-10.6-5.84q-5.26-4.2-9.86-7.49a22.36,22.36,0,0,1-4.35-4.85q-2.64-3.62-5.38-8a70.44,70.44,0,0,1-4.77-8.84,34.83,34.83,0,0,1-2.67-8.43l-.49-3a65.22,65.22,0,0,1-.4-17.67,61,61,0,0,1,4.86-19.56,20.71,20.71,0,0,1,2.3-4.44,31.81,31.81,0,0,0,2.39-3.94,2.88,2.88,0,0,0,.66-2.14l-.08-.49-.5.08a3.53,3.53,0,0,1,2.47-3.45l.49-.09.09.5a3.53,3.53,0,0,0,2.46-3.45l-.08-.5-.49.09a3.55,3.55,0,0,1,2.47-3.46l.49-.08.08.5a2.88,2.88,0,0,0,1.81-1.32q1.32-1.23,3.66-3.9a40,40,0,0,1,5.72-5.26,52.9,52.9,0,0,1,7.56-4.8,17.31,17.31,0,0,1,5.26-1.89l2-.33.82-1.15a2.87,2.87,0,0,1,1.89-.82,4.1,4.1,0,0,0,2.71,1.07.44.44,0,0,0,.41-.58.44.44,0,0,1,.41-.57c.33-.06.8.71,1.4,2.3.05.33.42,1.53,1.11,3.62a45.71,45.71,0,0,1,1.6,6.57q.65,3.94,1,7.44a14.81,14.81,0,0,1,0,4.57q.5-.09-4,1.93c-3,1.34-5,2.25-5.88,2.75a34.4,34.4,0,0,0-9.17,7.35,81.92,81.92,0,0,0-7.11,10.56,25.12,25.12,0,0,0-2.84,8.83,47.49,47.49,0,0,0-.46,11,24.59,24.59,0,0,0,.33,5,49,49,0,0,0,1.64,6.82,32.33,32.33,0,0,0,5.17,9.79,43.71,43.71,0,0,0,7.52,8.63A48,48,0,0,0,483.09,198a17.23,17.23,0,0,0,3.33,1.72c1.45.61,2.89,1.13,4.31,1.57a2.88,2.88,0,0,0,2.14.66l.41-.58a2.88,2.88,0,0,1,2.14.66,79.19,79.19,0,0,1,9.12,4.57c3.17,1.83,6.3,3.85,9.36,6l1.48-.24a1.43,1.43,0,0,1,.91-.66.44.44,0,0,1,.57.41.45.45,0,0,1,.58.41,1.48,1.48,0,0,1-.33,1.07l.25,1.48a2.86,2.86,0,0,0,2.13.66l.41-.58a2.88,2.88,0,0,1,2.14.66q10,5.43,20.87,18.84a137.19,137.19,0,0,1,17,26.06A78.14,78.14,0,0,1,564.84,278.15ZM440.93,170c.61-.44.88-.82.83-1.15a.44.44,0,0,0-.58-.41,3.88,3.88,0,0,0-1.4.73c-.6.44-.87.83-.82,1.16l.08.49A8.5,8.5,0,0,0,440.93,170Zm-.58,5.67a2.08,2.08,0,0,0,1.57.25,4.62,4.62,0,0,0,1.89-.82.45.45,0,0,0,.41-.58c-.06-.33-.63-.74-1.73-1.23C441,174.55,440.3,175.34,440.35,175.67Zm3.71-11.26a2.07,2.07,0,0,0-.74-1.4A2,2,0,0,1,442,161.2c.6-.44.87-.82.82-1.15l-.08-.49-.5.08q-.5.09-.24,1.56l-1.48.25.24,1.48a2.66,2.66,0,0,0,3.45,2.47Zm-3-8.63.5-.09c.11.66.68,1.07,1.72,1.24a1.61,1.61,0,0,0,1.65.74.45.45,0,0,0,.41-.58l.49-.08q-.17-1-1.89-2.22a2.3,2.3,0,0,0,1.07-2.71c-.22-1.32-.82-1.89-1.81-1.73a2.91,2.91,0,0,0-.65,2.14,20,20,0,0,1,1.39,2.3Q441,155.29,441.1,155.78Zm1.16-8.3c.16,1,.9,1.37,2.22,1.15a6.28,6.28,0,0,1,3.2,1,3.8,3.8,0,0,0,.25-1.57,2,2,0,0,0-1.81-1.72,4.86,4.86,0,0,1-3.61-.42A3.8,3.8,0,0,0,442.26,147.48Zm11.25,31.07-.09-.49-2.13-.66-1,.16a2.07,2.07,0,0,0-1.4.74c-.6.44-.88.82-.82,1.15a5.61,5.61,0,0,1,2.55.09l2.13.66A2.87,2.87,0,0,0,453.51,178.55Zm-6.08-15.21a1.4,1.4,0,0,0,.9-.65l-.16-1a.44.44,0,0,0-.57-.41,1.42,1.42,0,0,0-.91.65.45.45,0,0,0-.41.58,1.39,1.39,0,0,0,.66.9Zm2.87,11.18-.16-1a.44.44,0,0,0-.58-.41,1.4,1.4,0,0,0-.9.65.44.44,0,0,0-.41.58,1.4,1.4,0,0,0,.65.9A3.72,3.72,0,0,0,450.3,174.52Zm-2.95-23.84a1.48,1.48,0,0,0-.9.66.44.44,0,0,0-.41.58,1.41,1.41,0,0,0,.66.9l.49-.08a1.46,1.46,0,0,0,.9-.66l-.16-1A.45.45,0,0,0,447.35,150.68Zm3.95,5.43-.08-.49a.44.44,0,0,0-.58-.41l-.49.08c-.17-1-.58-1.43-1.24-1.32a2,2,0,0,0-1.39.74l-.41.58a.44.44,0,0,0,.57.41l2.47-.41C450.58,155.89,451,156.17,451.3,156.11Zm-2.55,3,.08.49c.33-.05.44-.41.33-1.07a2,2,0,0,0-.74-1.39l-.49.08c-.33,0-.41.57-.25,1.56C447.73,159.07,448.09,159.18,448.75,159.07Zm4.76,16.44-.17-1a.44.44,0,0,0-.57-.41,1.5,1.5,0,0,0-.91.66.44.44,0,0,0-.41.58,1.48,1.48,0,0,0,.66.9A3.79,3.79,0,0,0,453.51,175.51Zm-4.92-35.68a1.46,1.46,0,0,0-.9.66.44.44,0,0,0-.41.58,1.4,1.4,0,0,0,.65.9l1.48-.25-.24-1.47A.45.45,0,0,0,448.59,139.83Zm3,9.13a4,4,0,0,0,1.4-.74l-.17-1c-.05-.33-.41-.43-1.07-.33a4.11,4.11,0,0,0-1.39.74c-.44-.6-.82-.87-1.15-.82l-.41.58q.07.49,1.56.24Q450.64,149.13,451.63,149Zm2.22-8-.24-1.48a.44.44,0,0,0-.58-.41,1.4,1.4,0,0,0-.9.65.44.44,0,0,0-.41.58,1.4,1.4,0,0,0,.65.9ZM456,138.6a1.46,1.46,0,0,0-.9.66.44.44,0,0,0-.41.58,1.4,1.4,0,0,0,.65.9l1.48-.24-.24-1.48A.45.45,0,0,0,456,138.6Zm.17-8.13a1,1,0,1,0,.33,2c.33-.05.44-.41.33-1.07S456.49,130.41,456.16,130.47ZM471,207.58l-.25-1.48-1.48.24a1.49,1.49,0,0,0-.33,1.07l.58.41Zm-1.4-5.35-.49.09c-.33.05-.44.41-.33,1.06a.89.89,0,0,0,1.15.83l.08.49c.33,0,.42-.58.25-1.56A1.43,1.43,0,0,0,469.6,202.23Zm30.17,172.39c.33-.05.44-.41.33-1.07s-.33-1-.66-.9a1,1,0,1,0,.33,2ZM475.19,208.4a1.43,1.43,0,0,0,.33-1.07l-.08-.49-1.48.25a1.38,1.38,0,0,0-.33,1.06l.57.42Zm7.48-3.78a1.58,1.58,0,0,0,.74-1.64l-.08-.49q-.74-1.4-4.44-2.31a1.43,1.43,0,0,1,.66.91,2,2,0,0,1-1.15,2.22c-1.21.87-1.78,1.48-1.73,1.8a2.3,2.3,0,0,0,2.71,1.07A6,6,0,0,0,482.67,204.62Zm3.62,6.5.41-.58a1.48,1.48,0,0,0-.66-.9l-.08-.49a1.44,1.44,0,0,0-.91.65.45.45,0,0,0-.41.58,1.46,1.46,0,0,0,.66.9Zm4.11.33c.33,0,.44-.41.33-1.07s-.33-1-.66-.9a1,1,0,0,0,.33,2Zm22.76,11.93a1.39,1.39,0,0,0,.9-.66.5.5,0,1,0-.16-1,.44.44,0,0,0-.57-.41.44.44,0,0,0-.42.57,1.48,1.48,0,0,0-.33,1.07l.09.49Zm9.28,13.16.41-.58a.44.44,0,0,0-.57-.41.5.5,0,0,0-1,.16,1.49,1.49,0,0,0-.33,1.07l.08.5A3.87,3.87,0,0,0,522.44,236.54Zm17.5,22.94-.25-1.48a3.69,3.69,0,0,0-1.39.74.45.45,0,0,0-.42.57l.58.42Zm2.22,4.19-.25-1.48-1.48.25a1.48,1.48,0,0,0-.33,1.07l.58.41Zm4.69-8.38-.25-1.48a4,4,0,0,0-1.4.74.44.44,0,0,0-.41.58l.58.41ZM554,295.16a1.39,1.39,0,0,0,.9-.66l-.16-1a.44.44,0,0,0-.58-.41,1.4,1.4,0,0,0-.9.65.44.44,0,0,0-.41.58,1.4,1.4,0,0,0,.65.9Zm-5.57-39.62a.43.43,0,0,0-.41.57l.57.41,1.48-.24-.24-1.48A3.72,3.72,0,0,0,548.41,255.54Zm6.31,34.94a1.46,1.46,0,0,0,.9-.66l-.16-1a.44.44,0,0,0-.58-.41,1.45,1.45,0,0,0-.9.66.43.43,0,0,0-.41.57,1.43,1.43,0,0,0,.66.91Zm-.24-16.69-.24-1.48-1.48.25a1.38,1.38,0,0,0-.33,1.06l.57.42ZM554,261.71l-.24-1.48-1.48.24a1.4,1.4,0,0,0-.33,1.07l.57.41Zm3,17.75L556.7,278l-1.48.25a1.39,1.39,0,0,0-.33,1.07l.57.41Z"/><path d="M614.73,88.5a16.34,16.34,0,0,0-.25,3.5c0,.33.08,1.42.25,3.25s.41,3.92.75,6.25V108c-.34,2-.67,3.17-1,3.5A6.11,6.11,0,0,1,610,113a1.44,1.44,0,0,1-1-.5,39.4,39.4,0,0,1-7.75-.75q-3.75-.75-7.25-1.25h-1.5a4.85,4.85,0,0,0-3.5,1c-.34.33-.5,1.5-.5,3.5a9.25,9.25,0,0,0,.5,3V350q0,4.5.25,10.25c.16,3.83.25,7.42.25,10.75v9c0,2.67-.17,4.17-.5,4.5a4,4,0,0,1-2.5.5H584q-5-.5-8.5-.5a86.08,86.08,0,0,1-8.75-.25A4.67,4.67,0,0,1,564,383c-.67-.67-1-2.33-1-5q0-3.5.25-8.75t.5-10.75c.16-3.67.25-7,.25-10V328a35.73,35.73,0,0,1-.5-6,64.74,64.74,0,0,1,.5-9V262.5q-.51-7.5-.5-16,0-16,.5-33.5V180q0-3.5.25-14.25t.5-22.5Q565,131.51,565,122c0-6.33-.34-9.83-1-10.5a6.14,6.14,0,0,0-3.5-1H559c-2.34.33-4.75.75-7.25,1.25a37,37,0,0,1-7.25.75,1.47,1.47,0,0,1-1,.5,8.09,8.09,0,0,1-5-1.5c-.34,0-.5-.33-.5-1a1.41,1.41,0,0,1,.5-1V107a20.35,20.35,0,0,1-.5-3.5.44.44,0,0,1,.5-.5v-2a1.68,1.68,0,0,0-.75-1.5A1.68,1.68,0,0,1,537,98c0-.33.33-.67,1-1a1.45,1.45,0,0,0,.5-1V95c-.34-1.67-.67-3.17-1-4.5a1.41,1.41,0,0,1-.5-1,6.16,6.16,0,0,1,1.5-3.5H558c0,1,.16,1.5.5,1.5l.5-.5c.33,0,.5-.33.5-1H616A8.33,8.33,0,0,0,614.73,88.5ZM565,102.5a1.45,1.45,0,0,0,.5-1V101H564a1.41,1.41,0,0,0-.5,1l.5.5Zm17,202a3.93,3.93,0,0,0-.5-1.5c-1-.67-1.5-1.33-1.5-2a4.86,4.86,0,0,1,2.5-.75c1.33-.17,2-.42,2-.75a4.48,4.48,0,0,0,.5-2,1.45,1.45,0,0,0-.5-1L583,295a1.45,1.45,0,0,1,.5,1v1a2.89,2.89,0,0,1-2,1,.44.44,0,0,0,.5-.5,5.28,5.28,0,0,0-1-2,2.94,2.94,0,0,0-2.5-1.5c-.34,0-.84.33-1.5,1,0-.67-.17-1-.5-1a.88.88,0,0,0-1,1,2.65,2.65,0,0,1-1.25-1c-.17-.33-.59-.5-1.25-.5-.34.67-.67,1-1,1a4.45,4.45,0,0,0-2,.5c-.34-.67-.67-1-1-1s-.5.33-.5,1c-1.34.67-2,1.17-2,1.5h.5a2.15,2.15,0,0,0,1,1.75,24.39,24.39,0,0,0,2.25,1.5c.83.5,1.25.92,1.25,1.25-1,.33-1.5.67-1.5,1h.5a.89.89,0,0,0,1-1H573a.88.88,0,0,0,1,1,3.93,3.93,0,0,1,1.5.5,4.07,4.07,0,0,0-1,3v1a13.39,13.39,0,0,0,1.75,5,6.72,6.72,0,0,0,2.25,2.5v-2.5a3.37,3.37,0,0,0,3-1.5v.5c-.34,0-.5-.67-.5-2,0-1,.16-1.5.5-1.5a1.47,1.47,0,0,0-1-.5c-.34,0-.84.33-1.5,1-.34.67-.67,1-1,1s-.67-.5-1-1.5c0-1,.33-1.5,1-1.5h1a1.44,1.44,0,0,0,1,.5,2.07,2.07,0,0,0,1.5-.5A1.45,1.45,0,0,0,582,304.5Zm-12.5-159a1.44,1.44,0,0,0-1,.5.44.44,0,0,0-.5.5,1.41,1.41,0,0,0,.5,1,1.47,1.47,0,0,0,1-.5.44.44,0,0,0,.5-.5V146A.44.44,0,0,0,569.48,145.5Zm0,56.5a1.44,1.44,0,0,0-1,.5.44.44,0,0,0-.5.5,1.41,1.41,0,0,0,.5,1h1a1.45,1.45,0,0,0,.5-1v-.5A.44.44,0,0,0,569.48,202ZM568,295.5l.5-.5H570v1.5C568.64,296.5,568,296.17,568,295.5Zm1.5-168.5a1,1,0,0,0,0,2c.33,0,.5-.33.5-1S569.81,127,569.48,127Zm-1,54h.5v.5c.66,0,1-.5,1-1.5.66-.33,1-.67,1-1h-.5a.44.44,0,0,0-.5.5v.5C569,180.33,568.48,180.67,568.48,181ZM571,286.5l-.5-.5a.44.44,0,0,0-.5.5v1c-1,.33-1.5.67-1.5,1h.5v.5c.66,0,1-.5,1-1.5C570.64,287.17,571,286.83,571,286.5ZM572,132a1.44,1.44,0,0,0-1,.5c-1,.33-1.5.67-1.5,1l.5.5a8.39,8.39,0,0,0,2-.5l1-.5v-.5C573,132.17,572.64,132,572,132Zm-1,10.5a.44.44,0,0,0,.5-.5v-.5a.44.44,0,0,0-.5-.5,1.44,1.44,0,0,0-1,.5.44.44,0,0,0-.5.5,1.41,1.41,0,0,0,.5,1A1.47,1.47,0,0,0,571,142.5Zm0,21a1.44,1.44,0,0,0-1,.5.44.44,0,0,0-.5.5,1.41,1.41,0,0,0,.5,1,1.47,1.47,0,0,0,1-.5,1.45,1.45,0,0,0,.5-1A.44.44,0,0,0,571,163.5Zm-1,9.5a.44.44,0,0,0-.5.5l.5.5h1a1.45,1.45,0,0,0,.5-1v-.5A3.83,3.83,0,0,0,570,173Zm0,20.5a1.41,1.41,0,0,0-.5,1l.5.5h1a1.45,1.45,0,0,0,.5-1v-.5Zm1,91a1.45,1.45,0,0,0,.5-1V283H570a1.41,1.41,0,0,0-.5,1l.5.5Zm0,22a.44.44,0,0,0,.5-.5v-.5a.44.44,0,0,0-.5-.5,1.44,1.44,0,0,0-1,.5.44.44,0,0,0-.5.5,1.41,1.41,0,0,0,.5,1A1.47,1.47,0,0,0,571,306.5ZM574,138q-.51-1.5-1.5-1.5c-.67,0-1.5.67-2.5,2l.5-.5c.66,0,1.33.83,2,2.5L574,143a2.91,2.91,0,0,0,1-2A5.43,5.43,0,0,0,574,138Zm-3,159-.5.5-.5-1C570.64,296.5,571,296.67,571,297Zm1,15.5h.5a15.26,15.26,0,0,0,1.5-2v-2h-.5c-.34,0-1,.5-2,1.5-.34-1-.67-1.5-1-1.5v.5H570c0,.67.5,1,1.5,1C571.48,311.67,571.64,312.5,572,312.5Zm.5-195c-1,.33-1.5.67-1.5,1a.44.44,0,0,0,.5.5h2c.66-.33,1-.67,1-1l-.5-.5Zm-1,65.5a1.41,1.41,0,0,0-.5,1l.5.5h1a1.45,1.45,0,0,0,.5-1V183Zm2.5,35.5V218a1.47,1.47,0,0,0-1-.5h-.5c-.67.33-1,.67-1,1l-.5.5c0,.33.66.83,2,1.5V222c-1,.33-1.5.67-1.5,1h.5a.89.89,0,0,0,1-1c.66-.33,1-.67,1-1a1.47,1.47,0,0,0-1-.5A2.91,2.91,0,0,0,574,218.5Zm0-53.5a1.44,1.44,0,0,0-1,.5.44.44,0,0,0-.5.5l.5.5h1l.5-.5a.44.44,0,0,0-.5-.5Zm-1,15a1.41,1.41,0,0,0-.5,1l.5.5h1l.5-.5a1.45,1.45,0,0,0-.5-1Zm1,47.5a1.44,1.44,0,0,0-1,.5.44.44,0,0,0-.5.5,1.41,1.41,0,0,0,.5,1,1.47,1.47,0,0,0,1-.5.5.5,0,0,0,0-1Zm3,29a2.91,2.91,0,0,0-.5-2,2.07,2.07,0,0,0-1.5-.5h-.5a5.4,5.4,0,0,0-2,1v.5c0,.67.5,1.33,1.5,2,0-.33.33-.67,1-1h.5a1.61,1.61,0,0,1,1.5,1Zm-4,16a1.41,1.41,0,0,0-.5,1l.5.5h1l.5-.5a1.45,1.45,0,0,0-.5-1Zm-.5,27c0-1,.66-1.5,2-1.5a1.33,1.33,0,0,1,1.5,1.5,3.93,3.93,0,0,1-.5,1.5H573A3.76,3.76,0,0,1,572.48,299.5Zm1.5,19,.5-.5a.44.44,0,0,0-.5-.5V317a1.44,1.44,0,0,0-1,.5.44.44,0,0,0-.5.5,1.41,1.41,0,0,0,.5,1A1.47,1.47,0,0,0,574,318.5Zm3-31.5a3.93,3.93,0,0,1,1.5.5V289c0,.67.16,1,.5,1v.5a1.47,1.47,0,0,0,1-.5,1.45,1.45,0,0,0,.5-1v-.5a2,2,0,0,0-2-1,.89.89,0,0,0-1-1,4.45,4.45,0,0,1-2-.5v-1.5c2,0,3-.17,3-.5v-.5L577,282h-2.5a.44.44,0,0,0-.5.5c0,.33.5,1,1.5,2q-.51,0-1.5,1.5c-.67.33-1,.67-1,1h.5v.5a.44.44,0,0,0,.5-.5v-1h1.5A1.59,1.59,0,0,0,577,287Zm-1-96.5a4.48,4.48,0,0,0-.5-2,.44.44,0,0,0-.5-.5c-.34,0-.67.33-1,1a14.34,14.34,0,0,0,.5,3.5c0,.67.16,1,.5,1l.5-1.5A3.93,3.93,0,0,0,576,190.5Zm-.5,16.5.5-.5a1.45,1.45,0,0,0-.5-1V205a1.44,1.44,0,0,0-1,.5,1.41,1.41,0,0,0-.5,1v.5Zm0,16a1.44,1.44,0,0,0-1,.5,1.41,1.41,0,0,0-.5,1v.5h.5a1.47,1.47,0,0,0,1-.5.5.5,0,0,0,0-1Zm1.5-94a1.44,1.44,0,0,0-1,.5,1.41,1.41,0,0,0-.5,1v.5h.5a1.47,1.47,0,0,0,1-.5.5.5,0,0,0,0-1Zm0,19.5a1.44,1.44,0,0,0-1,.5,1.41,1.41,0,0,0-.5,1v.5h.5a1.47,1.47,0,0,0,1-.5.5.5,0,0,0,0-1Zm1,3a1.44,1.44,0,0,0-1,.5c-1,.33-1.5.67-1.5,1v.5a15.63,15.63,0,0,0,2.5-.5l1-.5a.44.44,0,0,0-.5-.5A.44.44,0,0,0,578,151.5Zm-1,139,.5-.5a1.45,1.45,0,0,0-.5-1v-.5a1.44,1.44,0,0,0-1,.5,1.41,1.41,0,0,0-.5,1v.5Zm-.5,5.5c-.34,0-.67-.33-1-1H577C577,295.67,576.81,296,576.48,296Zm.5,5.5c0,.33-.5.67-1.5,1V301A2.07,2.07,0,0,1,577,301.5Zm1,15.5,1-.5a.44.44,0,0,0-.5-.5.44.44,0,0,0-.5-.5,1.44,1.44,0,0,0-1,.5c-1,.33-1.5.67-1.5,1v.5A15.63,15.63,0,0,0,578,317Zm.5-139.5-1.5,1h2.5c.66-.33,1-.67,1-1l-.5-.5A3.83,3.83,0,0,0,578.48,177.5Zm3-14.5-.5-.5c-.67,0-1,.5-1,1.5h-1.5l-.5-1.5v.5a.44.44,0,0,0-.5.5c0,.33.33.5,1,.5,0,1.67.33,2.5,1,2.5V166c.33,0,.5-.33.5-1v-1C581,163.67,581.48,163.33,581.48,163ZM580,186.5h-.5a.88.88,0,0,0-1,1c-.67.33-1,.67-1,1h.5v.5a.44.44,0,0,0,.5-.5v-1C579.48,187.17,580,186.83,580,186.5Zm-2.5,19v.5l.5-.5a2.06,2.06,0,0,0,1.25-.75,6.77,6.77,0,0,0,1.25-1.75H580l-1.5,1Zm0,105.5a.44.44,0,0,1,.5-.5V310l.5,1.5C577.81,311.5,577.48,311.33,577.48,311ZM581,173a.44.44,0,0,0,.5-.5c.66,0,1-.17,1-.5v-.5A3.3,3.3,0,0,0,581,170h-.5a2.85,2.85,0,0,0-2,1C579.81,172.33,580.64,173,581,173Zm-1,19,.5-.5a1.45,1.45,0,0,0-.5-1h-1a1.41,1.41,0,0,0-.5,1v.5Zm0,9,.5-.5a1.45,1.45,0,0,0-.5-1h-1a1.41,1.41,0,0,0-.5,1v.5Zm.5,59a1.45,1.45,0,0,0-.5-1,1.44,1.44,0,0,0-1,.5,1.41,1.41,0,0,0-.5,1H580Zm-.5,17,.5-.5a1.45,1.45,0,0,0-.5-1h-1a1.41,1.41,0,0,0-.5,1v.5Zm3-169h-.5c-.34,0-.84.33-1.5,1a2.87,2.87,0,0,0-1,2l-.5.5c0,.67.66,1.17,2,1.5.33.67.66,1,1,1l.5-.5c0-.33-.5-.5-1.5-.5a1.33,1.33,0,0,1,1.5-1.5Zm-1,149a1.45,1.45,0,0,0-.5-1,1.44,1.44,0,0,0-1,.5,1.41,1.41,0,0,0-.5,1h1.5Zm-.5,26,.5-.5a1.45,1.45,0,0,0-.5-1h-1a1.41,1.41,0,0,0-.5,1v.5ZM582,94a1.41,1.41,0,0,0-.5,1H583l.5-.5a1.45,1.45,0,0,0-.5-1A1.44,1.44,0,0,0,582,94Zm1,29a1.44,1.44,0,0,0-1,.5,1.41,1.41,0,0,0-.5,1v.5H583l.5-.5a1.45,1.45,0,0,0-.5-1Zm.5,56.5a1.45,1.45,0,0,0-.5-1,1.44,1.44,0,0,0-1,.5,1.41,1.41,0,0,0-.5,1H583Zm-.5,8,.5-.5a1.45,1.45,0,0,0-.5-1h-1a1.41,1.41,0,0,0-.5,1v.5Zm-.5,4v.5c.33,0,.5-.5.5-1.5a1.45,1.45,0,0,0-.5-1H582c-.34,0-.5.33-.5,1A.88.88,0,0,0,582.48,191.5Zm0,5.5v.5c.33,0,.5-.33.5-1V194h-1l-.5,1A2.87,2.87,0,0,0,582.48,197Zm.5,90a1.44,1.44,0,0,0-1,.5,1.41,1.41,0,0,0-.5,1v.5H583l.5-.5a1.45,1.45,0,0,0-.5-1Zm1-102.5.5-.5c0-.67-.5-1-1.5-1l-.5-1v.5a.44.44,0,0,0-.5.5h1C583.31,184,583.64,184.5,584,184.5Zm.5-57a1.44,1.44,0,0,0-1,.5,1.41,1.41,0,0,0-.5,1v.5h1.5l.5-.5a1.45,1.45,0,0,0-.5-1Zm0,151,.5-.5a1.45,1.45,0,0,0-.5-1h-1a1.41,1.41,0,0,0-.5,1v.5Zm1,41.5,1-.5a.44.44,0,0,0-.5-.5.44.44,0,0,0-.5-.5,1.44,1.44,0,0,0-1,.5c-1,.33-1.5.67-1.5,1v.5A15.63,15.63,0,0,0,585.48,320ZM585,92.5a1.41,1.41,0,0,0-.5,1H586l.5-.5a1.45,1.45,0,0,0-.5-1A1.44,1.44,0,0,0,585,92.5Zm1,68,.5-.5a.44.44,0,0,0-.5-.5V159a1.44,1.44,0,0,0-1,.5,1.41,1.41,0,0,0-.5,1v.5A3.93,3.93,0,0,0,586,160.5Zm1.5-50.5.5-.5a1.45,1.45,0,0,0-.5-1h-1a1.41,1.41,0,0,0-.5,1v.5Zm.5,63.5a1.45,1.45,0,0,0-.5-1,1.44,1.44,0,0,0-1,.5,1.41,1.41,0,0,0-.5,1h1.5Z"/><path d="M750.15,376.49a2.08,2.08,0,0,1-1.57-.22,50.56,50.56,0,0,1-7,.78,25.3,25.3,0,0,0-5,.41l-2,.37c-2.23.75-3.26,1.61-3.07,2.6l-1.48.27c-1.23-1.13-2.17-3.5-2.84-7.1a28.63,28.63,0,0,1-1.49-5.32,36.19,36.19,0,0,1-.59-6,105.31,105.31,0,0,1-1.58-12.68,91.74,91.74,0,0,0-1.12-10.21l-3.18-17.21a2.41,2.41,0,0,0-.72-1.14,15.58,15.58,0,0,1-1.3-1.54L717,318a1.42,1.42,0,0,1,.89-.68,4.43,4.43,0,0,1,2.06.13c.44.6.83.86,1.16.8l-.09-.49a.44.44,0,0,0-.58-.4l-.49.09-.28-1.47a3.37,3.37,0,0,0,2.68-2c.6-.45.86-.84.8-1.17l-.58-.4a.44.44,0,0,0-.4.58l.18,1-1,.18c-1.31.24-1.88.85-1.7,1.84l-57.52,10.62q-4.92.9-10.42,1.41l-3.44.64c-2,.36-3.09.73-3.35,1.12-.54.78-.53,2.64,0,5.59s1.22,6.13,2,9.55,1.58,6.74,2.35,10,1.27,5.53,1.52,6.84q.63,3.45,1.79,8.32c.77,3.24,1.62,6.48,2.55,9.69l1.54,8.36c.16,2.69.1,4.22-.16,4.61a4.07,4.07,0,0,1-2.77,1.53,2,2,0,0,1-1.57-.22q-3.44.63-7.91,1.2c-3,.39-5.65.62-8,.72l-2.46.45c-1.31.25-2.1.56-2.37.95l-4.09-22.13c.93-.51,1.33-1.09,1.21-1.74l-.09-.5a1.61,1.61,0,0,0-1.66-.71l-.27-1.47a.89.89,0,0,0,.8-1.17c-.06-.33-.42-.43-1.07-.31l-16.52-89.49a.88.88,0,0,0,.8-1.16c-.06-.33-.42-.43-1.08-.31l-5.62-30.49c.59-.44.86-.83.8-1.16s-.42-.43-1.08-.31l-5.17-28q1.38-.77,1.2-1.74l-.09-.5a1.61,1.61,0,0,0-1.66-.71l-3.54-19.17a.89.89,0,0,0,.81-1.17c-.06-.33-.42-.43-1.08-.31l-5.63-30.48q.9-.67.81-1.17c-.06-.33-.42-.43-1.08-.31l-1.36-7.37c1.6-2.33,2.24-5.33,1.9-9a26.56,26.56,0,0,1,.73-9.79,7.21,7.21,0,0,1,1.81-2.62,7.21,7.21,0,0,0,1.8-2.63,10.89,10.89,0,0,0,.75-4.2,7,7,0,0,1,.84-3.72,44,44,0,0,1,15-16.74q9.3-6,20.29-12.64l14.75-2.73a78.34,78.34,0,0,1,27.09,4.92,54.67,54.67,0,0,1,22.34,14.94l2,2.68,2,2.68q3.27,4,5.63,7.09a35,35,0,0,1,4.52,9.34A90.12,90.12,0,0,1,712.91,150q.92,4.92,1.41,10.42,2.11,16.9,5.28,34.11L752.92,375A4.11,4.11,0,0,1,750.15,376.49Zm-118.88-5L631,370l-1.47.27a1.44,1.44,0,0,0-.31,1.08l.58.4ZM600.15,208.43l.49-.1.09.5c.33-.06.4-.59.22-1.57l1.47-.27q.76,1.38,1.26,1.29l-.09-.49a.88.88,0,0,0-1.17-.8c-.45-.6-.83-.86-1.16-.8a1.41,1.41,0,0,0-.31,1.07C600.35,207.71,600.09,208.1,600.15,208.43Zm7.33,1.18a1.45,1.45,0,0,0-.67-.89,1.43,1.43,0,0,0-1.07-.31l-.5.09c-.59.45-.77,1.33-.52,2.64a3.81,3.81,0,0,0-1.57-.22c-1,.18-1.35.93-1.11,2.24a3.81,3.81,0,0,0-.22,1.57,1.33,1.33,0,0,0,1.75,1.2l.49-.09.62-2.15a5.69,5.69,0,0,0,0-2.55C606.35,210.84,607.28,210.33,607.48,209.61Zm9,73.59-.27-1.47-1.47.27a1.38,1.38,0,0,0-.31,1.07l.58.4Zm9.71,52.61-.18-1a.44.44,0,0,0-.58-.4,1.42,1.42,0,0,0-.89.67.44.44,0,0,0-.4.58,1.44,1.44,0,0,0,.67.9A3.94,3.94,0,0,0,626.2,335.81Zm-2.25-6.7.09.49-.49.09c.12.66.67.89,1.66.71.44.6.83.87,1.16.8l-.09-.49a.44.44,0,0,0-.58-.4l-.49.09Q624.45,329,624,329.11Zm-4.62-38.81-.27-1.47-1.48.27a1.43,1.43,0,0,0-.31,1.07l.58.41Zm4.19,28.21a1.4,1.4,0,0,0,.89-.67l-.18-1a.44.44,0,0,0-.58-.4,1.42,1.42,0,0,0-.89.68.44.44,0,0,0-.41.58,1.48,1.48,0,0,0,.68.89ZM635,375.37l-.27-1.48-1.48.27a1.49,1.49,0,0,0-.31,1.08l.59.4ZM591.61,142.89a1,1,0,1,0,.36,2c.33-.06.43-.42.31-1.07S591.93,142.83,591.61,142.89Zm26.61,135.92c.66-.12,1-.34.9-.67a.5.5,0,1,0-.18-1,2,2,0,0,0-1.57-.22,2,2,0,0,0-1.69,1.84A8.36,8.36,0,0,0,618.22,278.81ZM602,196.39a1.48,1.48,0,0,0-.31,1.07l.58.41,1.48-.28-.27-1.47Zm6.11,24.8-.28-1.47a.44.44,0,0,0-.58-.4,1.42,1.42,0,0,0-.89.67.44.44,0,0,0-.4.58,1.44,1.44,0,0,0,.67.9Zm11.5,70.59a1.42,1.42,0,0,0-.31,1.07l.58.4,1.48-.27-.27-1.47Zm3.22,14.66a1.49,1.49,0,0,0,.89-.67l-.18-1a.45.45,0,0,0-.59-.4,1.49,1.49,0,0,0-.89.67.45.45,0,0,0-.4.59,1.49,1.49,0,0,0,.67.89Zm-9.22-52.7-.5.09c-.32.06-.4.58-.22,1.56.07.33.42.43,1.08.31l.09.5c.33-.07.43-.42.31-1.08A2,2,0,0,0,613.6,253.74Zm36.78,124.89-.18-1a3.81,3.81,0,0,0-1.57-.22c-.65.12-.89.67-.71,1.66l-1,.18c-1,.18-1.36.93-1.11,2.24.3,1.64-.21,2.58-1.52,2.82-.42-2.29-1.18-3.68-2.29-4.15l-3.44.63a4.84,4.84,0,0,0-1.42,3.32,1.41,1.41,0,0,0-.31,1.07,6.15,6.15,0,0,0,2.11,3.17c-.6.45-.86.84-.8,1.16l.49-.09.09.5c.33-.07.4-.59.22-1.57,1.16.8,1.91,1.17,2.24,1.11a.44.44,0,0,0,.4-.58l-.27-1.48c-.19-1,.32-1.92,1.51-2.82a5.59,5.59,0,0,1,1.25,1.3c.84.86,1.42,1.26,1.75,1.2l.49-.09-.27-1.48.4-.58a1.44,1.44,0,0,1,1.08.31,1.49,1.49,0,0,1,.67.89,1.44,1.44,0,0,1-.31,1.08l.45,2.46c-2,.36-3.08.73-3.35,1.12a1.49,1.49,0,0,0-.31,1.08l.09.49a1.44,1.44,0,0,0,1.08.31,1.49,1.49,0,0,0,.89-.67c.66-.13,1.19-.9,1.6-2.33l1.48-.28c.45.6.84.87,1.16.81l-.09-.5c-.06-.32-.42-.43-1.07-.31.8-1.16,1-3.06.47-5.68q-.63-3.44-2.38-4.64Zm-23.51-61.25a1.44,1.44,0,0,0-.89.68.44.44,0,0,0-.4.58,1.4,1.4,0,0,0,.67.89l.49-.09a1.4,1.4,0,0,0,.89-.67l-.18-1A.44.44,0,0,0,626.87,317.38Zm-4.77-28.6c.12.65.67.89,1.65.71.45.59.84.86,1.17.8l-.09-.49c-.06-.33-.42-.43-1.08-.31a1.32,1.32,0,0,0-1.74-1.21c-.45-.59-.84-.86-1.17-.8l-.4.58c.06.33.58.41,1.57.22ZM611,223.2a1.4,1.4,0,0,0-.89.67.44.44,0,0,0-.4.58,1.44,1.44,0,0,0,.67.9l1.47-.28-.27-1.47A.44.44,0,0,0,611,223.2Zm-3-18.78a1.44,1.44,0,0,0-.31,1.08l.58.4,1.48-.27-.27-1.48ZM610,214.75a1.43,1.43,0,0,0-.31,1.07l.58.4,1.47-.27-.27-1.47Zm2,5.23a1.4,1.4,0,0,0-.89.67.44.44,0,0,0-.4.58,1.4,1.4,0,0,0,.67.89l1.47-.27-.27-1.47A.44.44,0,0,0,611.94,220Zm28.95,156.85a1.45,1.45,0,0,0-.89.67.44.44,0,0,0-.4.58,1.43,1.43,0,0,0,.67.89l1.48-.27-.27-1.47A.45.45,0,0,0,640.89,376.83Zm-.47,5.68a.45.45,0,0,1,.4-.59,1.46,1.46,0,0,1,.89-.67.44.44,0,0,1,.58.4l.28,1.48-1.48.27A1.45,1.45,0,0,1,640.42,382.51ZM609.94,209.16a1,1,0,0,0,.37,2l.09.49c.32-.06.4-.58.22-1.57C610.49,209.4,610.27,209.1,609.94,209.16Zm10,46a1.4,1.4,0,0,0-.89.67.44.44,0,0,0-.4.58,1.4,1.4,0,0,0,.67.89,3.72,3.72,0,0,0,1.38-.76l-.18-1A.44.44,0,0,0,620,255.11Zm1.58,5.81-.27-1.48a4,4,0,0,0-1.39.76.45.45,0,0,0-.4.59l.59.4Zm1.18,6.39a.44.44,0,0,0-.4.58l.58.4,1.48-.27-.28-1.48A4,4,0,0,0,622.71,267.31Zm-5.26-42.25a1.45,1.45,0,0,0-.89.67.45.45,0,0,0-.4.59,1.49,1.49,0,0,0,.67.89l.5-.09a1.47,1.47,0,0,0,.89-.68l-.18-1A.45.45,0,0,0,617.45,225.06Zm9.21,47.11-.27-1.47a3.82,3.82,0,0,0-1.39.76.44.44,0,0,0-.4.58l.58.4Zm17.39,97c-.92.5-1.35.92-1.29,1.25a.44.44,0,0,0,.58.4l2-.36q.9-.68.81-1.17l-.09-.49Zm-14-75.73a1,1,0,0,0,.36,2c.33-.06.43-.42.31-1.07S630.4,293.34,630.07,293.4Zm17.31,82.74-.27-1.48a.45.45,0,0,0-.59-.4,1.49,1.49,0,0,0-.89.67.45.45,0,0,0-.4.59,1.42,1.42,0,0,0,.67.89ZM637.2,315.48a1.44,1.44,0,0,0-.9.67.45.45,0,0,0-.4.58,1.46,1.46,0,0,0,.68.9l.49-.09a1.44,1.44,0,0,0,.89-.68l-.18-1A.44.44,0,0,0,637.2,315.48Zm.9,4.92-.49.09c-.33.06-.4.58-.22,1.56.06.33.42.43,1.08.31l.09.49c.33-.06.43-.42.31-1.07A2,2,0,0,0,638.1,320.4Zm12,53.72-.28-1.48-1.47.28A1.41,1.41,0,0,0,648,374l.58.4Zm62.46-85.77-1.63-8.85q-1.39-4.83-2.73-10.68c-.9-3.9-1.67-7.66-2.34-11.26a13.53,13.53,0,0,1,0-4.32,14.72,14.72,0,0,0-.13-4.81,47.57,47.57,0,0,0-2.71-9.16,37,37,0,0,1-1.58-5.81l-9.62-52.11q-1.9-10.33-3.1-22.31a49.2,49.2,0,0,0-.78-7,55.9,55.9,0,0,0-3.92-13,30,30,0,0,0-9.88-12.16,52.09,52.09,0,0,0-11.91-6.7,35.05,35.05,0,0,0-13.69-2.56l-5.9,1.09a39,39,0,0,0-6.3,1.68A38.24,38.24,0,0,0,625.53,127q-5.5,4.58-7.24,9a13,13,0,0,1-1.45,1.79,3.85,3.85,0,0,0-1,1.7,37.08,37.08,0,0,0-2.07,20.47q1.8,11.1,4.52,25.86L633,264.91q.81,4.43,1.5,10.91t1.87,12.87a35,35,0,0,0,.6,6,27.88,27.88,0,0,0,1.49,5.32q.9,4.92,2.16,6.21a.44.44,0,0,0,.58.4,2.9,2.9,0,0,0,1.79-1.34,5.19,5.19,0,0,1,1.78-1.35l1-.18a8,8,0,0,1,2,.13,8.84,8.84,0,0,0,4.12.25,3.89,3.89,0,0,0,2.57-1.23,2.38,2.38,0,0,1,1.58-1.06c4.26-.78,8.06-1.32,11.4-1.59a94.65,94.65,0,0,0,9.43-1.24,16.35,16.35,0,0,0,4-.23,23.08,23.08,0,0,0,4.33-1.31,53.64,53.64,0,0,0,9.16-2.71c1-.18,1.51-.11,1.57.22l.18,1,2.46-.45a12.85,12.85,0,0,0,3.84-1.22,11.5,11.5,0,0,1,3.75-1.71,7.81,7.81,0,0,1,3.14.44,2.84,2.84,0,0,0,2.14.62,1.44,1.44,0,0,0,.9-.67C712.62,292.57,712.68,291,712.52,288.35Zm-68.88,29a1.42,1.42,0,0,0-.89.67.44.44,0,0,0-.4.58,1.44,1.44,0,0,0,.67.9,1.42,1.42,0,0,0,.89-.68.44.44,0,0,0,.4-.58l-.09-.49A.44.44,0,0,0,643.64,317.34Zm1.8,4.24.89-.67-.09-.49c-.06-.33-.41-.43-1.07-.31a1.4,1.4,0,0,0-.89.67c-.93.51-1.36.93-1.3,1.26l.59.4A8.33,8.33,0,0,0,645.44,321.58Zm15.83-2.41a1.49,1.49,0,0,0,.89-.67.5.5,0,0,0-.18-1l-.09-.49a1.75,1.75,0,0,0-1.21,1.75l.09.49Zm11.49-14.83a3.88,3.88,0,0,0-1.38.76c-.6.45-.86.84-.8,1.16l.09.5.49-.09a8.33,8.33,0,0,0,1.88-.86c.65-.12,1-.34.89-.67a.44.44,0,0,0-.58-.4A.45.45,0,0,0,672.76,304.34Zm-.78,6.75a1.42,1.42,0,0,0,.89-.67.5.5,0,0,0-.18-1,.5.5,0,1,0-1,.19,1.37,1.37,0,0,0-.31,1.07l.09.49Zm18.11,1.74c-.24-1.31-.85-1.88-1.83-1.69l-.64-3.45a4.41,4.41,0,0,0-2.06-.12l-2,.36c-1,.18-1.76-.35-2.33-1.6-.51-.93-.93-1.36-1.26-1.3l.09.49a.89.89,0,0,0,1.17.81c0,1.69-.37,2.61-1,2.73l-.77-1.39c-1.28-1.46-2.25-2.12-2.91-2l.27,1.47a1.33,1.33,0,0,1-1.2,1.75,1.44,1.44,0,0,0-1.08-.31c.07.33.11,1.51.15,3.53-.86.84-1.23,1.59-1.11,2.24l.09.49a3.28,3.28,0,0,0,1.74,1.21,1.46,1.46,0,0,0,.9-.68l-.09-.49a7.68,7.68,0,0,0-1.53-2.77l1.47-.27.09.49c.13.66.9,1.19,2.33,1.61a3.76,3.76,0,0,0,1.57.21c.66-.12.89-.67.71-1.65l1-.18a2,2,0,0,1,1.57.22,2,2,0,0,0,2.15.62,6.26,6.26,0,0,1,2,2.67c.24,1.32.85,1.88,1.84,1.7a3.86,3.86,0,0,0,1.38-.77Zm-14.65-10.51a.44.44,0,0,0-.4.58,1.42,1.42,0,0,0-.31,1.07l.09.49.49-.09a1.44,1.44,0,0,0,.9-.67.5.5,0,1,0-.19-1A.44.44,0,0,0,675.44,302.32Zm1.45,7.86.59.4c.06.33-.37.75-1.3,1.26C676,310.86,676.24,310.3,676.89,310.18Zm2.33,1.61a2.08,2.08,0,0,1,.22-1.57l.4-.58.5-.09a1.46,1.46,0,0,1,.67.89,8.07,8.07,0,0,1-.13,2.06C679.9,312.68,679.35,312.44,679.22,311.79Zm3.82,6.92.1.49c.32-.06.43-.42.31-1.07a2.08,2.08,0,0,0-.77-1.39l-.49.09c-.33.06-.4.59-.22,1.57C682,318.73,682.39,318.83,683,318.71Zm5.11-13.66-.18-1a4.42,4.42,0,0,0-2.06-.13,2,2,0,0,0-1.69,1.84Zm-.88,6.27a2,2,0,0,0-1.69,1.84,4.4,4.4,0,0,1,1.87-.86.88.88,0,0,0,.81-1.16ZM707.42,302l-.09-.5-.5.1c-.32.06-.4.58-.21,1.56-2.21-.95-3.38-1.75-3.5-2.4.6-.45.86-.84.8-1.17l-.09-.49-.49.09c-.33.06-.4.58-.22,1.57a16.3,16.3,0,0,1-4,.23l-.5.09c-1,.18-1.35.93-1.11,2.24-.59.45-.86.84-.8,1.16l.49-.09c.33-.06.43-.41.31-1.07l1.48-.27c1-.18,1.5-.11,1.56.22l.19,1a4.73,4.73,0,0,0-.84,3.71l.18,1a7.51,7.51,0,0,1-5.25-3.61,2.89,2.89,0,0,0-2.14-.62q-1,.18-2,2.91c-.51-.92-.93-1.35-1.25-1.29l.09.49-.49.09c.12.66.67.89,1.65.71a9.4,9.4,0,0,1,1,2.86l.18,1a21.34,21.34,0,0,0,.23,4c.25,1.31.56,2.1.95,2.37a.44.44,0,0,0,.58.4,4.44,4.44,0,0,0,1.88-.86c.92-.51,1.35-.93,1.29-1.25a3.82,3.82,0,0,0-.76-1.39c-1.11-.47-1.69-.87-1.75-1.2a.44.44,0,0,1,.4-.58,2,2,0,0,1,1.39-.77,8.09,8.09,0,0,1,2.54,0l1-.18a1.33,1.33,0,0,0,1.2-1.75,3.72,3.72,0,0,0-.76-1.38l1.47-.27a3.93,3.93,0,0,0-.22,1.56c.12.66.68.89,1.66.71a1.77,1.77,0,0,1,2.33,1.61c-1.64.3-2.43.61-2.37.94l-.4.58a1.75,1.75,0,0,0,1.75,1.21l.4-.59c.65-.12.86-.83.62-2.14a2,2,0,0,0,1.11-2.24l-.36-2a3,3,0,0,0-2.73-1,5.09,5.09,0,0,0-1.79,1.35,2.36,2.36,0,0,1,2.1-2.42l2-.37a1.33,1.33,0,0,0,1.21-1.75l-.18-1C707.21,302.72,707.48,302.33,707.42,302Zm-13.54,6.56.5-.09a1.61,1.61,0,0,1,1.25,1.29l-.31,1.08a.44.44,0,0,1-.58-.4,2,2,0,0,0-1.57-.22l-.49.09C692.83,309.28,693.23,308.69,693.88,308.57Zm.38,7.56.09.49-.49.09c.12.66.67.89,1.66.71Q694.76,316,694.26,316.13Zm7.53-11.56a.44.44,0,0,1,.4-.58,1.51,1.51,0,0,1,.89-.68.46.46,0,0,1,.59.41l.18,1a1.44,1.44,0,0,1-.9.67l-.49.09A1.4,1.4,0,0,1,701.79,304.57Zm4.63-8a1.4,1.4,0,0,0-.89.67.44.44,0,0,0-.4.58,1.44,1.44,0,0,0,.67.9l.49-.09a1.45,1.45,0,0,0,.89-.68l-.18-1A.44.44,0,0,0,706.42,296.6Zm3.65,11.53a1.45,1.45,0,0,0-.89.67.44.44,0,0,0-.4.58,1.4,1.4,0,0,0,.67.89l.49-.09a1.44,1.44,0,0,0,.9-.67l-.19-1A.44.44,0,0,0,710.07,308.13Zm1.8,4.24c.6-.45.87-.84.8-1.17s-.41-.43-1.07-.31a1.45,1.45,0,0,0-.89.68c-.92.51-1.36.93-1.3,1.25l.59.4A8.13,8.13,0,0,0,711.87,312.37ZM675.71,119.23a1.41,1.41,0,0,0-.31,1.07l.58.4,1.48-.27-.28-1.48Zm36,184a1.45,1.45,0,0,0-.89.67q-1.38.76-1.29,1.26l.58.4.49-.09a3.88,3.88,0,0,0,1.39-.77l.89-.67-.09-.49C712.73,303.23,712.37,303.13,711.71,303.25Zm1.18,6.39a1.48,1.48,0,0,0,.9-.67l-.18-1a.45.45,0,0,0-.59-.4,1.49,1.49,0,0,0-.89.67.45.45,0,0,0-.4.59,1.42,1.42,0,0,0,.67.89Zm3.74-7.3a1.42,1.42,0,0,0-.89.67.44.44,0,0,0-.4.58,1.44,1.44,0,0,0,.67.9l.49-.09a1.42,1.42,0,0,0,.89-.68l-.18-1A.44.44,0,0,0,716.63,302.34Zm1.58,5.81a1.61,1.61,0,0,0,1.3-1.26,2,2,0,0,1-2.15-.62.45.45,0,0,0-.59-.4l-.21,1.57C716.68,308.09,717.23,308.33,718.21,308.15ZM707.77,251.6a.45.45,0,0,0-.4.59l.58.4,1.48-.27-.27-1.48A4,4,0,0,0,707.77,251.6Zm5,10.77-.27-1.48-1.48.28a1.45,1.45,0,0,0-.31,1.07l.59.4Zm-10.06-49-.4.58c.06.33.58.4,1.57.22l.45,2.46a.44.44,0,0,0,.58.4l.31-1.07a2,2,0,0,0,.22-1.57c-.06-.33-.58-.4-1.56-.22C703.47,213.59,703.08,213.32,702.75,213.38Zm1.24-4.3a1.44,1.44,0,0,0-.89.68.44.44,0,0,0-.4.58.79.79,0,0,0,1.56.22.44.44,0,0,0,.4-.58l-.09-.49A.44.44,0,0,0,704,209.08Zm8.17,44.26a1.44,1.44,0,0,0,.31-1.08l-.09-.49a3.88,3.88,0,0,0-1.38.76.46.46,0,0,0-.41.59l.59.4ZM716,274a1.44,1.44,0,0,0,.31-1.08l-.09-.49-1.47.27a1.44,1.44,0,0,0-.31,1.08l.58.4Zm13.8,74.73a1.41,1.41,0,0,0,.31-1.07l-.09-.49-1.48.27a1.49,1.49,0,0,0-.31,1.08l.59.4ZM710.41,232.81l-.5.09c-.65.13-.89.68-.71,1.66l.49-.09a1.44,1.44,0,0,1,1.08.31.44.44,0,0,0,.58.4c.33-.06.6-.45.8-1.16C712,233.36,711.45,233,710.41,232.81Zm19.34,110.32.1.5-.5.09a.45.45,0,0,0,.59.4l1-.18c.18,1,.44,1.44.76,1.38l.4-.58c.33-.06.44-.42.31-1.08.6-.44.87-.83.81-1.16l-.49.09a.44.44,0,0,0-.41.58l.09.49-1.47.28Q730.25,343,729.75,343.13ZM718.65,272a1.44,1.44,0,0,0,.31-1.08l-.09-.49-1.47.27a1.4,1.4,0,0,0-.31,1.08l.58.4Zm9.91,59.18a.44.44,0,0,0-.4.58l.58.41,1-.19a1.37,1.37,0,0,0,.31-1.07l-.09-.49A3.88,3.88,0,0,0,728.56,331.15Zm1.54,8.36a1.49,1.49,0,0,0-.31,1.08l.59.4,1-.19a1.41,1.41,0,0,0,.31-1.07l-.09-.49Zm3.6,8.49q.9-.67.81-1.17l-.1-.49-2,.37c-.92.5-1.36.92-1.3,1.25a.45.45,0,0,0,.59.4ZM710.87,221.54a1.46,1.46,0,0,0-.9.68.44.44,0,0,0-.4.58.79.79,0,0,0,1.57.22.44.44,0,0,0,.4-.58l-.09-.5A.45.45,0,0,0,710.87,221.54Zm10.53,57a1.44,1.44,0,0,0-.9.67.45.45,0,0,0-.4.58,1.46,1.46,0,0,0,.68.9l1-.18a1.44,1.44,0,0,0,.31-1.08L722,279A.44.44,0,0,0,721.4,278.58Zm10.89,59a1.42,1.42,0,0,0,.31-1.07l-.09-.49a3.82,3.82,0,0,0-1.39.76.44.44,0,0,0-.4.58l.59.4Zm-15-81.13a2,2,0,0,0,.77,1.39l.49-.09A2,2,0,0,0,720,257a2.87,2.87,0,0,0,.13-2.05c-.12-.66-1-1-2.73-1A8.16,8.16,0,0,0,717.31,256.45Zm14.28,69.06a1.48,1.48,0,0,0,.31-1.07l-.09-.5a3.88,3.88,0,0,0-1.39.77.44.44,0,0,0-.4.58l.58.4Zm.54,2.95a1.43,1.43,0,0,0,.31-1.07l-.09-.5a3.78,3.78,0,0,0-1.38.77.44.44,0,0,0-.41.58l.59.4Zm1.09,5.9a1.43,1.43,0,0,0,.31-1.07l-.09-.5a3.88,3.88,0,0,0-1.39.77.44.44,0,0,0-.4.58l.59.4ZM737,355a1.43,1.43,0,0,0,.31-1.07l-.09-.49-1.47.27a1.42,1.42,0,0,0-.31,1.07l.58.4Zm3.11,8.58a1.44,1.44,0,0,0,.31-1.08l-.09-.49a.44.44,0,0,0-.58-.4,1.42,1.42,0,0,0-.89.68.44.44,0,0,0-.41.58,1.44,1.44,0,0,0,.68.89Zm-6.37-40,.4-.58-.09-.49c-.06-.33-.42-.43-1.07-.31q-.68-.9-1.17-.81l.09.5-.49.09a.45.45,0,0,0,.58.4l1-.18ZM719.49,235.2a1.48,1.48,0,0,0-.89.68.44.44,0,0,0-.4.58.79.79,0,0,0,1.56.22,1.43,1.43,0,0,0,.31-1.07A.44.44,0,0,0,719.49,235.2Zm15.63,90.17a.44.44,0,0,0-.4.58l.58.4,1-.18a1.44,1.44,0,0,0,.31-1.08l-.09-.49A3.86,3.86,0,0,0,735.12,325.37Zm3.61,14.07a1.42,1.42,0,0,0,.31-1.07l-.09-.49-1.47.27a1.43,1.43,0,0,0-.31,1.07l.58.4Zm-15.88-86-.49.09c-.33.06-.43.42-.31,1.07a.87.87,0,0,0,1.16.8l.09.5c.33-.06.4-.59.22-1.57A1.4,1.4,0,0,0,722.85,253.4Zm21,97.3-.18-1a3.79,3.79,0,0,0-1.56-.22q-1,.18-.72,1.65-1.38.77-1.29,1.26l.49-.09.09.49c.66-.12.9-.67.71-1.66ZM723.24,247.22l-.5.1c-.32.06-.43.41-.31,1.07a.89.89,0,0,0,1.17.8l.09.49c.33-.06.4-.58.22-1.56A1.48,1.48,0,0,0,723.24,247.22Z"/></g></g></svg>